<svg xmlns="http://www.w3.org/2000/svg" xmlns:xlink="http://www.w3.org/1999/xlink" contentStyleType="text/css" height="1370px" preserveAspectRatio="none" style="width:2716px;height:1370px;background:#FFFFFF;" version="1.1" viewBox="0 0 2716 1370" width="2716px" zoomAndPan="magnify"><defs/><g><!--cluster Domain--><g id="cluster_Domain"><path d="M1109.5,615.0137 L1161.8379,615.0137 A3.75,3.75 0 0 1 1164.3379,617.5137 L1171.3379,639.6348 L2706.5,639.6348 A2.5,2.5 0 0 1 2709,642.1348 L2709,1323.5137 A2.5,2.5 0 0 1 2706.5,1326.0137 L1109.5,1326.0137 A2.5,2.5 0 0 1 1107,1323.5137 L1107,617.5137 A2.5,2.5 0 0 1 1109.5,615.0137 " fill="#E8F4FD" style="stroke:#000000;stroke-width:1.5;"/><line style="stroke:#000000;stroke-width:1.5;" x1="1107" x2="1171.3379" y1="639.6348" y2="639.6348"/><text fill="#000000" font-family="sans-serif" font-size="14" font-weight="bold" lengthAdjust="spacing" textLength="51.3379" x="1111" y="632.1211">Domain</text></g><!--cluster Services--><g id="cluster_Services"><path d="M8.5,656.0137 L67.1064,656.0137 A3.75,3.75 0 0 1 69.6064,658.5137 L76.6064,680.6348 L437.5,680.6348 A2.5,2.5 0 0 1 440,683.1348 L440,1155.5137 A2.5,2.5 0 0 1 437.5,1158.0137 L8.5,1158.0137 A2.5,2.5 0 0 1 6,1155.5137 L6,658.5137 A2.5,2.5 0 0 1 8.5,656.0137 " fill="#D4EDDA" style="stroke:#000000;stroke-width:1.5;"/><line style="stroke:#000000;stroke-width:1.5;" x1="6" x2="76.6064" y1="680.6348" y2="680.6348"/><text fill="#000000" font-family="sans-serif" font-size="14" font-weight="bold" lengthAdjust="spacing" textLength="57.6064" x="10" y="673.1211">Services</text></g><!--cluster Parsers & Visitors--><g id="cluster_Parsers &amp; Visitors"><path d="M503.5,6.0137 L625.1201,6.0137 A3.75,3.75 0 0 1 627.6201,8.5137 L634.6201,30.6348 L1430.5,30.6348 A2.5,2.5 0 0 1 1433,33.1348 L1433,588.5137 A2.5,2.5 0 0 1 1430.5,591.0137 L503.5,591.0137 A2.5,2.5 0 0 1 501,588.5137 L501,8.5137 A2.5,2.5 0 0 1 503.5,6.0137 " fill="#F0F0F0" style="stroke:#000000;stroke-width:1.5;"/><line style="stroke:#000000;stroke-width:1.5;" x1="501" x2="634.6201" y1="30.6348" y2="30.6348"/><text fill="#000000" font-family="sans-serif" font-size="14" font-weight="bold" lengthAdjust="spacing" textLength="120.6201" x="505" y="23.1211">Parsers &amp; Visitors</text></g><!--class Frota--><g id="elem_Frota"><rect codeLine="10" fill="#B3D9FF" height="85.2422" id="Frota" rx="2.5" ry="2.5" style="stroke:#181818;stroke-width:0.5;" width="170.751" x="1551" y="980.5137"/><ellipse cx="1615.7876" cy="996.5137" fill="#ADD1B2" rx="11" ry="11" style="stroke:#181818;stroke-width:1.0;"/><path d="M1618.5532,992.3887 Q1618.7095,992.1699 1618.897,992.0605 Q1619.0845,991.9512 1619.3032,991.9512 Q1619.6782,991.9512 1619.9126,992.2168 Q1620.147,992.4668 1620.147,993.0762 L1620.147,994.5293 Q1620.147,995.1387 1619.9126,995.4043 Q1619.6782,995.6699 1619.3032,995.6699 Q1618.9595,995.6699 1618.7563,995.4668 Q1618.5532,995.2793 1618.4438,994.7637 Q1618.397,994.4043 1618.2095,994.2168 Q1617.8813,993.8418 1617.272,993.623 Q1616.6626,993.4043 1616.0376,993.4043 Q1615.272,993.4043 1614.6313,993.7324 Q1614.0063,994.0605 1613.5063,994.8105 Q1613.022,995.5605 1613.022,996.5918 L1613.022,997.6855 Q1613.022,998.9199 1613.9126,999.748 Q1614.8032,1000.5605 1616.397,1000.5605 Q1617.3345,1000.5605 1617.9907,1000.3105 Q1618.3813,1000.1543 1618.8032,999.7168 Q1619.0688,999.4512 1619.2095,999.373 Q1619.3657,999.2949 1619.5688,999.2949 Q1619.897,999.2949 1620.147,999.5605 Q1620.4126,999.8105 1620.4126,1000.1543 Q1620.4126,1000.498 1620.0688,1000.9043 Q1619.5688,1001.4824 1618.772,1001.8105 Q1617.6938,1002.2637 1616.397,1002.2637 Q1614.8813,1002.2637 1613.6782,1001.6387 Q1612.6938,1001.1387 1612.0063,1000.0762 Q1611.3188,998.998 1611.3188,997.7168 L1611.3188,996.5605 Q1611.3188,995.2324 1611.9282,994.0918 Q1612.5532,992.9355 1613.647,992.3262 Q1614.7407,991.7012 1615.9751,991.7012 Q1616.7095,991.7012 1617.3501,991.873 Q1618.0063,992.0293 1618.5532,992.3887 Z " fill="#000000"/><text fill="#000000" font-family="sans-serif" font-size="14" lengthAdjust="spacing" textLength="32.6758" x="1636.2876" y="1002.3105">Frota</text><line style="stroke:#181818;stroke-width:0.5;" x1="1552" x2="1720.751" y1="1012.5137" y2="1012.5137"/><ellipse cx="1562" cy="1027.3242" fill="none" rx="3" ry="3" style="stroke:#038048;stroke-width:1.0;"/><text fill="#000000" font-family="sans-serif" font-size="14" lengthAdjust="spacing" text-decoration="underline" textLength="126.8545" x="1571" y="1031.6211">drones: List&lt;Drone&gt;</text><ellipse cx="1562" cy="1045.9453" fill="none" rx="3" ry="3" style="stroke:#038048;stroke-width:1.0;"/><text fill="#000000" font-family="sans-serif" font-size="14" lengthAdjust="spacing" text-decoration="underline" textLength="144.751" x="1571" y="1050.2422">modelos: List&lt;Modelo&gt;</text><line style="stroke:#181818;stroke-width:0.5;" x1="1552" x2="1720.751" y1="1057.7559" y2="1057.7559"/></g><!--class Drone--><g id="elem_Drone"><rect codeLine="15" fill="#B3D9FF" height="215.5898" id="Drone" rx="2.5" ry="2.5" style="stroke:#181818;stroke-width:0.5;" width="223.668" x="1894.5" y="1094.0137"/><ellipse cx="1983.0186" cy="1110.0137" fill="#ADD1B2" rx="11" ry="11" style="stroke:#181818;stroke-width:1.0;"/><path d="M1985.7842,1105.8887 Q1985.9404,1105.6699 1986.1279,1105.5605 Q1986.3154,1105.4512 1986.5342,1105.4512 Q1986.9092,1105.4512 1987.1436,1105.7168 Q1987.3779,1105.9668 1987.3779,1106.5762 L1987.3779,1108.0293 Q1987.3779,1108.6387 1987.1436,1108.9043 Q1986.9092,1109.1699 1986.5342,1109.1699 Q1986.1904,1109.1699 1985.9873,1108.9668 Q1985.7842,1108.7793 1985.6748,1108.2637 Q1985.6279,1107.9043 1985.4404,1107.7168 Q1985.1123,1107.3418 1984.5029,1107.123 Q1983.8936,1106.9043 1983.2686,1106.9043 Q1982.5029,1106.9043 1981.8623,1107.2324 Q1981.2373,1107.5605 1980.7373,1108.3105 Q1980.2529,1109.0605 1980.2529,1110.0918 L1980.2529,1111.1855 Q1980.2529,1112.4199 1981.1436,1113.248 Q1982.0342,1114.0605 1983.6279,1114.0605 Q1984.5654,1114.0605 1985.2217,1113.8105 Q1985.6123,1113.6543 1986.0342,1113.2168 Q1986.2998,1112.9512 1986.4404,1112.873 Q1986.5967,1112.7949 1986.7998,1112.7949 Q1987.1279,1112.7949 1987.3779,1113.0605 Q1987.6436,1113.3105 1987.6436,1113.6543 Q1987.6436,1113.998 1987.2998,1114.4043 Q1986.7998,1114.9824 1986.0029,1115.3105 Q1984.9248,1115.7637 1983.6279,1115.7637 Q1982.1123,1115.7637 1980.9092,1115.1387 Q1979.9248,1114.6387 1979.2373,1113.5762 Q1978.5498,1112.498 1978.5498,1111.2168 L1978.5498,1110.0605 Q1978.5498,1108.7324 1979.1592,1107.5918 Q1979.7842,1106.4355 1980.8779,1105.8262 Q1981.9717,1105.2012 1983.2061,1105.2012 Q1983.9404,1105.2012 1984.5811,1105.373 Q1985.2373,1105.5293 1985.7842,1105.8887 Z " fill="#000000"/><text fill="#000000" font-family="sans-serif" font-size="14" lengthAdjust="spacing" textLength="38.1309" x="2003.5186" y="1115.8105">Drone</text><line style="stroke:#181818;stroke-width:0.5;" x1="1895.5" x2="2117.168" y1="1126.0137" y2="1126.0137"/><rect fill="none" height="6" style="stroke:#C82930;stroke-width:1.0;" width="6" x="1902.5" y="1137.8242"/><text fill="#000000" font-family="sans-serif" font-size="14" lengthAdjust="spacing" textLength="79.3721" x="1914.5" y="1145.1211">nome: String</text><rect fill="none" height="6" style="stroke:#C82930;stroke-width:1.0;" width="6" x="1902.5" y="1156.4453"/><text fill="#000000" font-family="sans-serif" font-size="14" lengthAdjust="spacing" textLength="114.3994" x="1914.5" y="1163.7422">numeroSerie: long</text><rect fill="none" height="6" style="stroke:#C82930;stroke-width:1.0;" width="6" x="1902.5" y="1175.0664"/><text fill="#000000" font-family="sans-serif" font-size="14" lengthAdjust="spacing" textLength="90.2686" x="1914.5" y="1182.3633">modelo: String</text><rect fill="none" height="6" style="stroke:#C82930;stroke-width:1.0;" width="6" x="1902.5" y="1193.6875"/><text fill="#000000" font-family="sans-serif" font-size="14" lengthAdjust="spacing" textLength="112.0889" x="1914.5" y="1200.9844">pesoBase: double</text><rect fill="none" height="6" style="stroke:#C82930;stroke-width:1.0;" width="6" x="1902.5" y="1212.3086"/><text fill="#000000" font-family="sans-serif" font-size="14" lengthAdjust="spacing" textLength="124.5371" x="1914.5" y="1219.6055">bateriaAtual: double</text><rect fill="none" height="6" style="stroke:#C82930;stroke-width:1.0;" width="6" x="1902.5" y="1230.9297"/><text fill="#000000" font-family="sans-serif" font-size="14" lengthAdjust="spacing" textLength="86.3857" x="1914.5" y="1238.2266">estado: String</text><rect fill="none" height="6" style="stroke:#C82930;stroke-width:1.0;" width="6" x="1902.5" y="1249.5508"/><text fill="#000000" font-family="sans-serif" font-size="14" lengthAdjust="spacing" textLength="109.751" x="1914.5" y="1256.8477">horasVoo: double</text><rect fill="none" height="6" style="stroke:#C82930;stroke-width:1.0;" width="6" x="1902.5" y="1268.1719"/><text fill="#000000" font-family="sans-serif" font-size="14" lengthAdjust="spacing" textLength="185.2197" x="1914.5" y="1275.4688">ultimaManutencao: LocalDate</text><rect fill="none" height="6" style="stroke:#C82930;stroke-width:1.0;" width="6" x="1902.5" y="1286.793"/><text fill="#000000" font-family="sans-serif" font-size="14" lengthAdjust="spacing" textLength="197.668" x="1914.5" y="1294.0898">proximaManutencao: LocalDate</text><line style="stroke:#181818;stroke-width:0.5;" x1="1895.5" x2="2117.168" y1="1301.6035" y2="1301.6035"/></g><!--class Modelo--><g id="elem_Modelo"><rect codeLine="27" fill="#B3D9FF" height="234.2109" id="Modelo" rx="2.5" ry="2.5" style="stroke:#181818;stroke-width:0.5;" width="205.751" x="2264" y="991.0137"/><ellipse cx="2339.667" cy="1007.0137" fill="#ADD1B2" rx="11" ry="11" style="stroke:#181818;stroke-width:1.0;"/><path d="M2342.4326,1002.8887 Q2342.5889,1002.6699 2342.7764,1002.5605 Q2342.9639,1002.4512 2343.1826,1002.4512 Q2343.5576,1002.4512 2343.792,1002.7168 Q2344.0264,1002.9668 2344.0264,1003.5762 L2344.0264,1005.0293 Q2344.0264,1005.6387 2343.792,1005.9043 Q2343.5576,1006.1699 2343.1826,1006.1699 Q2342.8389,1006.1699 2342.6357,1005.9668 Q2342.4326,1005.7793 2342.3232,1005.2637 Q2342.2764,1004.9043 2342.0889,1004.7168 Q2341.7607,1004.3418 2341.1514,1004.123 Q2340.542,1003.9043 2339.917,1003.9043 Q2339.1514,1003.9043 2338.5107,1004.2324 Q2337.8857,1004.5605 2337.3857,1005.3105 Q2336.9014,1006.0605 2336.9014,1007.0918 L2336.9014,1008.1855 Q2336.9014,1009.4199 2337.792,1010.248 Q2338.6826,1011.0605 2340.2764,1011.0605 Q2341.2139,1011.0605 2341.8701,1010.8105 Q2342.2607,1010.6543 2342.6826,1010.2168 Q2342.9482,1009.9512 2343.0889,1009.873 Q2343.2451,1009.7949 2343.4482,1009.7949 Q2343.7764,1009.7949 2344.0264,1010.0605 Q2344.292,1010.3105 2344.292,1010.6543 Q2344.292,1010.998 2343.9482,1011.4043 Q2343.4482,1011.9824 2342.6514,1012.3105 Q2341.5732,1012.7637 2340.2764,1012.7637 Q2338.7607,1012.7637 2337.5576,1012.1387 Q2336.5732,1011.6387 2335.8857,1010.5762 Q2335.1982,1009.498 2335.1982,1008.2168 L2335.1982,1007.0605 Q2335.1982,1005.7324 2335.8076,1004.5918 Q2336.4326,1003.4355 2337.5264,1002.8262 Q2338.6201,1002.2012 2339.8545,1002.2012 Q2340.5889,1002.2012 2341.2295,1002.373 Q2341.8857,1002.5293 2342.4326,1002.8887 Z " fill="#000000"/><text fill="#000000" font-family="sans-serif" font-size="14" lengthAdjust="spacing" textLength="45.917" x="2360.167" y="1012.8105">Modelo</text><line style="stroke:#181818;stroke-width:0.5;" x1="2265" x2="2468.751" y1="1023.0137" y2="1023.0137"/><rect fill="none" height="6" style="stroke:#C82930;stroke-width:1.0;" width="6" x="2272" y="1034.8242"/><text fill="#000000" font-family="sans-serif" font-size="14" lengthAdjust="spacing" textLength="79.3721" x="2284" y="1042.1211">nome: String</text><rect fill="none" height="6" style="stroke:#C82930;stroke-width:1.0;" width="6" x="2272" y="1053.4453"/><text fill="#000000" font-family="sans-serif" font-size="14" lengthAdjust="spacing" textLength="138.5576" x="2284" y="1060.7422">capacidadeKg: double</text><rect fill="none" height="6" style="stroke:#C82930;stroke-width:1.0;" width="6" x="2272" y="1072.0664"/><text fill="#000000" font-family="sans-serif" font-size="14" lengthAdjust="spacing" textLength="137.7578" x="2284" y="1079.3633">autonomiaMin: double</text><rect fill="none" height="6" style="stroke:#C82930;stroke-width:1.0;" width="6" x="2272" y="1090.6875"/><text fill="#000000" font-family="sans-serif" font-size="14" lengthAdjust="spacing" textLength="169.6611" x="2284" y="1097.9844">velocidadeCruzeiro: double</text><rect fill="none" height="6" style="stroke:#C82930;stroke-width:1.0;" width="6" x="2272" y="1109.3086"/><text fill="#000000" font-family="sans-serif" font-size="14" lengthAdjust="spacing" textLength="160.3506" x="2284" y="1116.6055">velocidadeSubida: double</text><rect fill="none" height="6" style="stroke:#C82930;stroke-width:1.0;" width="6" x="2272" y="1127.9297"/><text fill="#000000" font-family="sans-serif" font-size="14" lengthAdjust="spacing" textLength="167.3369" x="2284" y="1135.2266">velocidadeDescida: double</text><rect fill="none" height="6" style="stroke:#C82930;stroke-width:1.0;" width="6" x="2272" y="1146.5508"/><text fill="#000000" font-family="sans-serif" font-size="14" lengthAdjust="spacing" textLength="139.2959" x="2284" y="1153.8477">sensores: List&lt;String&gt;</text><rect fill="none" height="6" style="stroke:#C82930;stroke-width:1.0;" width="6" x="2272" y="1165.1719"/><text fill="#000000" font-family="sans-serif" font-size="14" lengthAdjust="spacing" textLength="160.2959" x="2284" y="1172.4688">certificacoes: List&lt;String&gt;</text><rect fill="none" height="6" style="stroke:#C82930;stroke-width:1.0;" width="6" x="2272" y="1183.793"/><text fill="#000000" font-family="sans-serif" font-size="14" lengthAdjust="spacing" textLength="179.751" x="2284" y="1191.0898">limites: Map&lt;String, Double&gt;</text><rect fill="none" height="6" style="stroke:#C82930;stroke-width:1.0;" width="6" x="2272" y="1202.4141"/><text fill="#000000" font-family="sans-serif" font-size="14" lengthAdjust="spacing" textLength="143.1719" x="2284" y="1209.7109">restricoes: List&lt;String&gt;</text><line style="stroke:#181818;stroke-width:0.5;" x1="2265" x2="2468.751" y1="1217.2246" y2="1217.2246"/></g><!--class Missoes--><g id="elem_Missoes"><rect codeLine="40" fill="#B3D9FF" height="66.6211" id="Missoes" rx="2.5" ry="2.5" style="stroke:#181818;stroke-width:0.5;" width="167.6064" x="1123" y="760.5137"/><ellipse cx="1176.8809" cy="776.5137" fill="#ADD1B2" rx="11" ry="11" style="stroke:#181818;stroke-width:1.0;"/><path d="M1179.6465,772.3887 Q1179.8027,772.1699 1179.9902,772.0605 Q1180.1777,771.9512 1180.3965,771.9512 Q1180.7715,771.9512 1181.0059,772.2168 Q1181.2402,772.4668 1181.2402,773.0762 L1181.2402,774.5293 Q1181.2402,775.1387 1181.0059,775.4043 Q1180.7715,775.6699 1180.3965,775.6699 Q1180.0527,775.6699 1179.8496,775.4668 Q1179.6465,775.2793 1179.5371,774.7637 Q1179.4902,774.4043 1179.3027,774.2168 Q1178.9746,773.8418 1178.3652,773.623 Q1177.7559,773.4043 1177.1309,773.4043 Q1176.3652,773.4043 1175.7246,773.7324 Q1175.0996,774.0605 1174.5996,774.8105 Q1174.1152,775.5605 1174.1152,776.5918 L1174.1152,777.6855 Q1174.1152,778.9199 1175.0059,779.748 Q1175.8965,780.5605 1177.4902,780.5605 Q1178.4277,780.5605 1179.084,780.3105 Q1179.4746,780.1543 1179.8965,779.7168 Q1180.1621,779.4512 1180.3027,779.373 Q1180.459,779.2949 1180.6621,779.2949 Q1180.9902,779.2949 1181.2402,779.5605 Q1181.5059,779.8105 1181.5059,780.1543 Q1181.5059,780.498 1181.1621,780.9043 Q1180.6621,781.4824 1179.8652,781.8105 Q1178.7871,782.2637 1177.4902,782.2637 Q1175.9746,782.2637 1174.7715,781.6387 Q1173.7871,781.1387 1173.0996,780.0762 Q1172.4121,778.998 1172.4121,777.7168 L1172.4121,776.5605 Q1172.4121,775.2324 1173.0215,774.0918 Q1173.6465,772.9355 1174.7402,772.3262 Q1175.834,771.7012 1177.0684,771.7012 Q1177.8027,771.7012 1178.4434,771.873 Q1179.0996,772.0293 1179.6465,772.3887 Z " fill="#000000"/><text fill="#000000" font-family="sans-serif" font-size="14" lengthAdjust="spacing" textLength="51.3447" x="1197.3809" y="782.3105">Missoes</text><line style="stroke:#181818;stroke-width:0.5;" x1="1124" x2="1289.6064" y1="792.5137" y2="792.5137"/><ellipse cx="1134" cy="807.3242" fill="none" rx="3" ry="3" style="stroke:#038048;stroke-width:1.0;"/><text fill="#000000" font-family="sans-serif" font-size="14" lengthAdjust="spacing" text-decoration="underline" textLength="141.6064" x="1143" y="811.6211">missoes: List&lt;Missao&gt;</text><line style="stroke:#181818;stroke-width:0.5;" x1="1124" x2="1289.6064" y1="819.1348" y2="819.1348"/></g><!--class Missao--><g id="elem_Missao"><rect codeLine="44" fill="#B3D9FF" height="141.1055" id="Missao" rx="2.5" ry="2.5" style="stroke:#181818;stroke-width:0.5;" width="175.4336" x="1549" y="772.5137"/><ellipse cx="1610.2944" cy="788.5137" fill="#ADD1B2" rx="11" ry="11" style="stroke:#181818;stroke-width:1.0;"/><path d="M1613.0601,784.3887 Q1613.2163,784.1699 1613.4038,784.0605 Q1613.5913,783.9512 1613.8101,783.9512 Q1614.1851,783.9512 1614.4194,784.2168 Q1614.6538,784.4668 1614.6538,785.0762 L1614.6538,786.5293 Q1614.6538,787.1387 1614.4194,787.4043 Q1614.1851,787.6699 1613.8101,787.6699 Q1613.4663,787.6699 1613.2632,787.4668 Q1613.0601,787.2793 1612.9507,786.7637 Q1612.9038,786.4043 1612.7163,786.2168 Q1612.3882,785.8418 1611.7788,785.623 Q1611.1694,785.4043 1610.5444,785.4043 Q1609.7788,785.4043 1609.1382,785.7324 Q1608.5132,786.0605 1608.0132,786.8105 Q1607.5288,787.5605 1607.5288,788.5918 L1607.5288,789.6855 Q1607.5288,790.9199 1608.4194,791.748 Q1609.3101,792.5605 1610.9038,792.5605 Q1611.8413,792.5605 1612.4976,792.3105 Q1612.8882,792.1543 1613.3101,791.7168 Q1613.5757,791.4512 1613.7163,791.373 Q1613.8726,791.2949 1614.0757,791.2949 Q1614.4038,791.2949 1614.6538,791.5605 Q1614.9194,791.8105 1614.9194,792.1543 Q1614.9194,792.498 1614.5757,792.9043 Q1614.0757,793.4824 1613.2788,793.8105 Q1612.2007,794.2637 1610.9038,794.2637 Q1609.3882,794.2637 1608.1851,793.6387 Q1607.2007,793.1387 1606.5132,792.0762 Q1605.8257,790.998 1605.8257,789.7168 L1605.8257,788.5605 Q1605.8257,787.2324 1606.4351,786.0918 Q1607.0601,784.9355 1608.1538,784.3262 Q1609.2476,783.7012 1610.4819,783.7012 Q1611.2163,783.7012 1611.8569,783.873 Q1612.5132,784.0293 1613.0601,784.3887 Z " fill="#000000"/><text fill="#000000" font-family="sans-serif" font-size="14" lengthAdjust="spacing" textLength="44.3447" x="1630.7944" y="794.3105">Missao</text><line style="stroke:#181818;stroke-width:0.5;" x1="1550" x2="1723.4336" y1="804.5137" y2="804.5137"/><rect fill="none" height="6" style="stroke:#C82930;stroke-width:1.0;" width="6" x="1557" y="816.3242"/><text fill="#000000" font-family="sans-serif" font-size="14" lengthAdjust="spacing" textLength="79.3721" x="1569" y="823.6211">nome: String</text><rect fill="none" height="6" style="stroke:#C82930;stroke-width:1.0;" width="6" x="1557" y="834.9453"/><text fill="#000000" font-family="sans-serif" font-size="14" lengthAdjust="spacing" textLength="76.2549" x="1569" y="842.2422">inicio: String</text><rect fill="none" height="6" style="stroke:#C82930;stroke-width:1.0;" width="6" x="1557" y="853.5664"/><text fill="#000000" font-family="sans-serif" font-size="14" lengthAdjust="spacing" textLength="80.1582" x="1569" y="860.8633">drone: String</text><rect fill="none" height="6" style="stroke:#C82930;stroke-width:1.0;" width="6" x="1557" y="872.1875"/><text fill="#000000" font-family="sans-serif" font-size="14" lengthAdjust="spacing" textLength="137.7441" x="1569" y="879.4844">estado: EstadoMissao</text><rect fill="none" height="6" style="stroke:#C82930;stroke-width:1.0;" width="6" x="1557" y="890.8086"/><text fill="#000000" font-family="sans-serif" font-size="14" lengthAdjust="spacing" textLength="149.4336" x="1569" y="898.1055">entregas: List&lt;Entrega&gt;</text><line style="stroke:#181818;stroke-width:0.5;" x1="1550" x2="1723.4336" y1="905.6191" y2="905.6191"/></g><!--class EstadoMissao--><g id="elem_EstadoMissao"><rect codeLine="52" fill="#FFE6CC" height="141.1055" id="EstadoMissao" rx="2.5" ry="2.5" style="stroke:#181818;stroke-width:0.5;" width="309.2197" x="1852" y="828.5137"/><ellipse cx="1958.3945" cy="844.5137" fill="#EB937F" rx="11" ry="11" style="stroke:#181818;stroke-width:1.0;"/><path d="M1957.2539,845.3105 L1957.2539,847.8105 L1961.582,847.8105 L1961.582,846.8887 Q1961.582,846.2793 1961.8164,846.0137 Q1962.0664,845.748 1962.4414,845.748 Q1962.8164,845.748 1963.0508,846.0137 Q1963.2852,846.2793 1963.2852,846.8887 L1963.2852,849.5137 L1955.2852,849.5137 Q1954.6602,849.5137 1954.3945,849.2793 Q1954.1445,849.0449 1954.1445,848.6543 Q1954.1445,848.2793 1954.4102,848.0449 Q1954.6758,847.8105 1955.2852,847.8105 L1955.5508,847.8105 L1955.5508,841.1543 L1955.2852,841.1543 Q1954.6602,841.1543 1954.3945,840.9199 Q1954.1445,840.6855 1954.1445,840.2949 Q1954.1445,839.9199 1954.3945,839.6855 Q1954.6602,839.4512 1955.2852,839.4512 L1962.9102,839.4512 L1962.9102,842.0449 Q1962.9102,842.6543 1962.6758,842.9199 Q1962.457,843.1699 1962.0664,843.1699 Q1961.6914,843.1699 1961.457,842.9199 Q1961.2227,842.6543 1961.2227,842.0449 L1961.2227,841.1543 L1957.2539,841.1543 L1957.2539,843.6074 L1958.7383,843.6074 Q1958.7383,842.9512 1958.8633,842.7637 Q1959.1289,842.3574 1959.5977,842.3574 Q1959.9727,842.3574 1960.207,842.623 Q1960.4414,842.873 1960.4414,843.4824 L1960.4414,845.4512 Q1960.4414,845.998 1960.3164,846.1855 Q1960.0508,846.5762 1959.5977,846.5762 Q1959.1289,846.5762 1958.8633,846.1699 Q1958.7383,845.9824 1958.7383,845.3105 L1957.2539,845.3105 Z " fill="#000000"/><text fill="#000000" font-family="sans-serif" font-size="14" lengthAdjust="spacing" textLength="87.9307" x="1978.8945" y="850.3105">EstadoMissao</text><line style="stroke:#181818;stroke-width:0.5;" x1="1853" x2="2160.2197" y1="860.5137" y2="860.5137"/><text fill="#000000" font-family="sans-serif" font-size="14" lengthAdjust="spacing" textLength="76.2344" x="1858" y="879.6211">PENDENTE</text><text fill="#000000" font-family="sans-serif" font-size="14" lengthAdjust="spacing" textLength="118.2344" x="1858" y="898.2422">EM_ANDAMENTO</text><text fill="#000000" font-family="sans-serif" font-size="14" lengthAdjust="spacing" textLength="82.4551" x="1858" y="916.8633">CONCLUIDA</text><text fill="#000000" font-family="sans-serif" font-size="14" lengthAdjust="spacing" textLength="85.5791" x="1858" y="935.4844">CANCELADA</text><line style="stroke:#181818;stroke-width:0.5;" x1="1853" x2="2160.2197" y1="942.998" y2="942.998"/><ellipse cx="1863" cy="957.8086" fill="#84BE84" rx="3" ry="3" style="stroke:#038048;stroke-width:1.0;"/><text fill="#000000" font-family="sans-serif" font-size="14" lengthAdjust="spacing" textLength="283.2197" x="1872" y="962.1055">fromString(estadoText: String): EstadoMissao</text></g><!--class Entrega--><g id="elem_Entrega"><rect codeLine="60" fill="#B3D9FF" height="141.1055" id="Entrega" rx="2.5" ry="2.5" style="stroke:#181818;stroke-width:0.5;" width="152.8613" x="1930" y="652.5137"/><ellipse cx="1977.6636" cy="668.5137" fill="#ADD1B2" rx="11" ry="11" style="stroke:#181818;stroke-width:1.0;"/><path d="M1980.4292,664.3887 Q1980.5854,664.1699 1980.7729,664.0605 Q1980.9604,663.9512 1981.1792,663.9512 Q1981.5542,663.9512 1981.7886,664.2168 Q1982.0229,664.4668 1982.0229,665.0762 L1982.0229,666.5293 Q1982.0229,667.1387 1981.7886,667.4043 Q1981.5542,667.6699 1981.1792,667.6699 Q1980.8354,667.6699 1980.6323,667.4668 Q1980.4292,667.2793 1980.3198,666.7637 Q1980.2729,666.4043 1980.0854,666.2168 Q1979.7573,665.8418 1979.1479,665.623 Q1978.5386,665.4043 1977.9136,665.4043 Q1977.1479,665.4043 1976.5073,665.7324 Q1975.8823,666.0605 1975.3823,666.8105 Q1974.8979,667.5605 1974.8979,668.5918 L1974.8979,669.6855 Q1974.8979,670.9199 1975.7886,671.748 Q1976.6792,672.5605 1978.2729,672.5605 Q1979.2104,672.5605 1979.8667,672.3105 Q1980.2573,672.1543 1980.6792,671.7168 Q1980.9448,671.4512 1981.0854,671.373 Q1981.2417,671.2949 1981.4448,671.2949 Q1981.7729,671.2949 1982.0229,671.5605 Q1982.2886,671.8105 1982.2886,672.1543 Q1982.2886,672.498 1981.9448,672.9043 Q1981.4448,673.4824 1980.6479,673.8105 Q1979.5698,674.2637 1978.2729,674.2637 Q1976.7573,674.2637 1975.5542,673.6387 Q1974.5698,673.1387 1973.8823,672.0762 Q1973.1948,670.998 1973.1948,669.7168 L1973.1948,668.5605 Q1973.1948,667.2324 1973.8042,666.0918 Q1974.4292,664.9355 1975.5229,664.3262 Q1976.6167,663.7012 1977.8511,663.7012 Q1978.5854,663.7012 1979.2261,663.873 Q1979.8823,664.0293 1980.4292,664.3887 Z " fill="#000000"/><text fill="#000000" font-family="sans-serif" font-size="14" lengthAdjust="spacing" textLength="49.0342" x="1998.1636" y="674.3105">Entrega</text><line style="stroke:#181818;stroke-width:0.5;" x1="1931" x2="2081.8613" y1="684.5137" y2="684.5137"/><rect fill="none" height="6" style="stroke:#C82930;stroke-width:1.0;" width="6" x="1938" y="696.3242"/><text fill="#000000" font-family="sans-serif" font-size="14" lengthAdjust="spacing" textLength="124.5098" x="1950" y="703.6211">origem: Localizacao</text><rect fill="none" height="6" style="stroke:#C82930;stroke-width:1.0;" width="6" x="1938" y="714.9453"/><text fill="#000000" font-family="sans-serif" font-size="14" lengthAdjust="spacing" textLength="126.8613" x="1950" y="722.2422">destino: Localizacao</text><rect fill="none" height="6" style="stroke:#C82930;stroke-width:1.0;" width="6" x="1938" y="733.5664"/><text fill="#000000" font-family="sans-serif" font-size="14" lengthAdjust="spacing" textLength="105.0752" x="1950" y="740.8633">distancia: double</text><rect fill="none" height="6" style="stroke:#C82930;stroke-width:1.0;" width="6" x="1938" y="752.1875"/><text fill="#000000" font-family="sans-serif" font-size="14" lengthAdjust="spacing" textLength="94.9648" x="1950" y="759.4844">altitude: double</text><rect fill="none" height="6" style="stroke:#C82930;stroke-width:1.0;" width="6" x="1938" y="770.8086"/><text fill="#000000" font-family="sans-serif" font-size="14" lengthAdjust="spacing" textLength="80.1787" x="1950" y="778.1055">peso: double</text><line style="stroke:#181818;stroke-width:0.5;" x1="1931" x2="2081.8613" y1="785.6191" y2="785.6191"/></g><!--class Localizacao--><g id="elem_Localizacao"><rect codeLine="68" fill="#B3D9FF" height="103.8633" id="Localizacao" rx="2.5" ry="2.5" style="stroke:#181818;stroke-width:0.5;" width="167.668" x="2283" y="652.0137"/><ellipse cx="2325.7787" cy="668.0137" fill="#ADD1B2" rx="11" ry="11" style="stroke:#181818;stroke-width:1.0;"/><path d="M2328.5443,663.8887 Q2328.7006,663.6699 2328.8881,663.5605 Q2329.0756,663.4512 2329.2943,663.4512 Q2329.6693,663.4512 2329.9037,663.7168 Q2330.1381,663.9668 2330.1381,664.5762 L2330.1381,666.0293 Q2330.1381,666.6387 2329.9037,666.9043 Q2329.6693,667.1699 2329.2943,667.1699 Q2328.9506,667.1699 2328.7475,666.9668 Q2328.5443,666.7793 2328.435,666.2637 Q2328.3881,665.9043 2328.2006,665.7168 Q2327.8725,665.3418 2327.2631,665.123 Q2326.6537,664.9043 2326.0287,664.9043 Q2325.2631,664.9043 2324.6225,665.2324 Q2323.9975,665.5605 2323.4975,666.3105 Q2323.0131,667.0605 2323.0131,668.0918 L2323.0131,669.1855 Q2323.0131,670.4199 2323.9037,671.248 Q2324.7943,672.0605 2326.3881,672.0605 Q2327.3256,672.0605 2327.9818,671.8105 Q2328.3725,671.6543 2328.7943,671.2168 Q2329.06,670.9512 2329.2006,670.873 Q2329.3568,670.7949 2329.56,670.7949 Q2329.8881,670.7949 2330.1381,671.0605 Q2330.4037,671.3105 2330.4037,671.6543 Q2330.4037,671.998 2330.06,672.4043 Q2329.56,672.9824 2328.7631,673.3105 Q2327.685,673.7637 2326.3881,673.7637 Q2324.8725,673.7637 2323.6693,673.1387 Q2322.685,672.6387 2321.9975,671.5762 Q2321.31,670.498 2321.31,669.2168 L2321.31,668.0605 Q2321.31,666.7324 2321.9193,665.5918 Q2322.5443,664.4355 2323.6381,663.8262 Q2324.7318,663.2012 2325.9662,663.2012 Q2326.7006,663.2012 2327.3412,663.373 Q2327.9975,663.5293 2328.5443,663.8887 Z " fill="#000000"/><text fill="#000000" font-family="sans-serif" font-size="14" lengthAdjust="spacing" textLength="73.9375" x="2345.9518" y="673.8105">Localizacao</text><line style="stroke:#181818;stroke-width:0.5;" x1="2284" x2="2449.668" y1="684.0137" y2="684.0137"/><rect fill="none" height="6" style="stroke:#C82930;stroke-width:1.0;" width="6" x="2291" y="695.8242"/><text fill="#000000" font-family="sans-serif" font-size="14" lengthAdjust="spacing" textLength="79.3721" x="2303" y="703.1211">nome: String</text><rect fill="none" height="6" style="stroke:#C82930;stroke-width:1.0;" width="6" x="2291" y="714.4453"/><text fill="#000000" font-family="sans-serif" font-size="14" lengthAdjust="spacing" textLength="129.9854" x="2303" y="721.7422">latitude: Coordenada</text><rect fill="none" height="6" style="stroke:#C82930;stroke-width:1.0;" width="6" x="2291" y="733.0664"/><text fill="#000000" font-family="sans-serif" font-size="14" lengthAdjust="spacing" textLength="141.668" x="2303" y="740.3633">longitude: Coordenada</text><line style="stroke:#181818;stroke-width:0.5;" x1="2284" x2="2449.668" y1="747.877" y2="747.877"/></g><!--class Coordenada--><g id="elem_Coordenada"><rect codeLine="74" fill="#B3D9FF" height="66.6211" id="Coordenada" rx="2.5" ry="2.5" style="stroke:#181818;stroke-width:0.5;" width="109.0615" x="2584" y="684.5137"/><ellipse cx="2599" cy="700.5137" fill="#ADD1B2" rx="11" ry="11" style="stroke:#181818;stroke-width:1.0;"/><path d="M2601.7656,696.3887 Q2601.9219,696.1699 2602.1094,696.0605 Q2602.2969,695.9512 2602.5156,695.9512 Q2602.8906,695.9512 2603.125,696.2168 Q2603.3594,696.4668 2603.3594,697.0762 L2603.3594,698.5293 Q2603.3594,699.1387 2603.125,699.4043 Q2602.8906,699.6699 2602.5156,699.6699 Q2602.1719,699.6699 2601.9688,699.4668 Q2601.7656,699.2793 2601.6563,698.7637 Q2601.6094,698.4043 2601.4219,698.2168 Q2601.0938,697.8418 2600.4844,697.623 Q2599.875,697.4043 2599.25,697.4043 Q2598.4844,697.4043 2597.8438,697.7324 Q2597.2188,698.0605 2596.7188,698.8105 Q2596.2344,699.5605 2596.2344,700.5918 L2596.2344,701.6855 Q2596.2344,702.9199 2597.125,703.748 Q2598.0156,704.5605 2599.6094,704.5605 Q2600.5469,704.5605 2601.2031,704.3105 Q2601.5938,704.1543 2602.0156,703.7168 Q2602.2813,703.4512 2602.4219,703.373 Q2602.5781,703.2949 2602.7813,703.2949 Q2603.1094,703.2949 2603.3594,703.5605 Q2603.625,703.8105 2603.625,704.1543 Q2603.625,704.498 2603.2813,704.9043 Q2602.7813,705.4824 2601.9844,705.8105 Q2600.9063,706.2637 2599.6094,706.2637 Q2598.0938,706.2637 2596.8906,705.6387 Q2595.9063,705.1387 2595.2188,704.0762 Q2594.5313,702.998 2594.5313,701.7168 L2594.5313,700.5605 Q2594.5313,699.2324 2595.1406,698.0918 Q2595.7656,696.9355 2596.8594,696.3262 Q2597.9531,695.7012 2599.1875,695.7012 Q2599.9219,695.7012 2600.5625,695.873 Q2601.2188,696.0293 2601.7656,696.3887 Z " fill="#000000"/><text fill="#000000" font-family="sans-serif" font-size="14" lengthAdjust="spacing" textLength="77.0615" x="2613" y="706.3105">Coordenada</text><line style="stroke:#181818;stroke-width:0.5;" x1="2585" x2="2692.0615" y1="716.5137" y2="716.5137"/><rect fill="none" height="6" style="stroke:#C82930;stroke-width:1.0;" width="6" x="2592" y="728.3242"/><text fill="#000000" font-family="sans-serif" font-size="14" lengthAdjust="spacing" textLength="80.165" x="2604" y="735.6211">valor: double</text><line style="stroke:#181818;stroke-width:0.5;" x1="2585" x2="2692.0615" y1="743.1348" y2="743.1348"/></g><!--class FrotaService--><g id="elem_FrotaService"><rect codeLine="81" fill="#F1F1F1" height="196.9688" id="FrotaService" rx="2.5" ry="2.5" style="stroke:#181818;stroke-width:0.5;" width="297.5781" x="74" y="944.5137"/><ellipse cx="178.8599" cy="960.5137" fill="#ADD1B2" rx="11" ry="11" style="stroke:#181818;stroke-width:1.0;"/><path d="M181.6255,956.3887 Q181.7817,956.1699 181.9692,956.0605 Q182.1567,955.9512 182.3755,955.9512 Q182.7505,955.9512 182.9849,956.2168 Q183.2192,956.4668 183.2192,957.0762 L183.2192,958.5293 Q183.2192,959.1387 182.9849,959.4043 Q182.7505,959.6699 182.3755,959.6699 Q182.0317,959.6699 181.8286,959.4668 Q181.6255,959.2793 181.5161,958.7637 Q181.4692,958.4043 181.2817,958.2168 Q180.9536,957.8418 180.3442,957.623 Q179.7349,957.4043 179.1099,957.4043 Q178.3442,957.4043 177.7036,957.7324 Q177.0786,958.0605 176.5786,958.8105 Q176.0942,959.5605 176.0942,960.5918 L176.0942,961.6855 Q176.0942,962.9199 176.9849,963.748 Q177.8755,964.5605 179.4692,964.5605 Q180.4067,964.5605 181.063,964.3105 Q181.4536,964.1543 181.8755,963.7168 Q182.1411,963.4512 182.2817,963.373 Q182.438,963.2949 182.6411,963.2949 Q182.9692,963.2949 183.2192,963.5605 Q183.4849,963.8105 183.4849,964.1543 Q183.4849,964.498 183.1411,964.9043 Q182.6411,965.4824 181.8442,965.8105 Q180.7661,966.2637 179.4692,966.2637 Q177.9536,966.2637 176.7505,965.6387 Q175.7661,965.1387 175.0786,964.0762 Q174.3911,962.998 174.3911,961.7168 L174.3911,960.5605 Q174.3911,959.2324 175.0005,958.0918 Q175.6255,956.9355 176.7192,956.3262 Q177.813,955.7012 179.0474,955.7012 Q179.7817,955.7012 180.4224,955.873 Q181.0786,956.0293 181.6255,956.3887 Z " fill="#000000"/><text fill="#000000" font-family="sans-serif" font-size="14" lengthAdjust="spacing" textLength="79.3584" x="199.3599" y="966.3105">FrotaService</text><line style="stroke:#181818;stroke-width:0.5;" x1="75" x2="370.5781" y1="976.5137" y2="976.5137"/><line style="stroke:#181818;stroke-width:0.5;" x1="75" x2="370.5781" y1="984.5137" y2="984.5137"/><ellipse cx="85" cy="999.3242" fill="#84BE84" rx="3" ry="3" style="stroke:#038048;stroke-width:1.0;"/><text fill="#000000" font-family="sans-serif" font-size="14" lengthAdjust="spacing" textLength="245.1025" x="94" y="1003.6211">carregarModelos(caminho: String): void</text><ellipse cx="85" cy="1017.9453" fill="#84BE84" rx="3" ry="3" style="stroke:#038048;stroke-width:1.0;"/><text fill="#000000" font-family="sans-serif" font-size="14" lengthAdjust="spacing" textLength="237.3164" x="94" y="1022.2422">carregarDrones(caminho: String): void</text><ellipse cx="85" cy="1036.5664" fill="#84BE84" rx="3" ry="3" style="stroke:#038048;stroke-width:1.0;"/><text fill="#000000" font-family="sans-serif" font-size="14" lengthAdjust="spacing" textLength="236.5439" x="94" y="1040.8633">exportarDrones(caminho: String): void</text><ellipse cx="85" cy="1055.1875" fill="#84BE84" rx="3" ry="3" style="stroke:#038048;stroke-width:1.0;"/><text fill="#000000" font-family="sans-serif" font-size="14" lengthAdjust="spacing" textLength="117.4756" x="94" y="1059.4844">listarDrones(): void</text><ellipse cx="85" cy="1073.8086" fill="#84BE84" rx="3" ry="3" style="stroke:#038048;stroke-width:1.0;"/><text fill="#000000" font-family="sans-serif" font-size="14" lengthAdjust="spacing" textLength="125.2617" x="94" y="1078.1055">listarModelos(): void</text><ellipse cx="85" cy="1092.4297" fill="#84BE84" rx="3" ry="3" style="stroke:#038048;stroke-width:1.0;"/><text fill="#000000" font-family="sans-serif" font-size="14" lengthAdjust="spacing" textLength="191.4268" x="94" y="1096.7266">adicionarDrone(d: Drone): void</text><ellipse cx="85" cy="1111.0508" fill="#84BE84" rx="3" ry="3" style="stroke:#038048;stroke-width:1.0;"/><text fill="#000000" font-family="sans-serif" font-size="14" lengthAdjust="spacing" textLength="266.9023" x="94" y="1115.3477">getModeloPorNome(nome: String): Modelo</text><ellipse cx="85" cy="1129.6719" fill="#84BE84" rx="3" ry="3" style="stroke:#038048;stroke-width:1.0;"/><text fill="#000000" font-family="sans-serif" font-size="14" lengthAdjust="spacing" textLength="271.5781" x="94" y="1133.9688">eliminarDrone(nomeDrone: String): boolean</text></g><!--class MissoesService--><g id="elem_MissoesService"><rect codeLine="92" fill="#F1F1F1" height="215.5898" id="MissoesService" rx="2.5" ry="2.5" style="stroke:#181818;stroke-width:0.5;" width="401.8193" x="22" y="693.0137"/><ellipse cx="169.646" cy="709.0137" fill="#ADD1B2" rx="11" ry="11" style="stroke:#181818;stroke-width:1.0;"/><path d="M172.4116,704.8887 Q172.5679,704.6699 172.7554,704.5605 Q172.9429,704.4512 173.1616,704.4512 Q173.5366,704.4512 173.771,704.7168 Q174.0054,704.9668 174.0054,705.5762 L174.0054,707.0293 Q174.0054,707.6387 173.771,707.9043 Q173.5366,708.1699 173.1616,708.1699 Q172.8179,708.1699 172.6147,707.9668 Q172.4116,707.7793 172.3022,707.2637 Q172.2554,706.9043 172.0679,706.7168 Q171.7397,706.3418 171.1304,706.123 Q170.521,705.9043 169.896,705.9043 Q169.1304,705.9043 168.4897,706.2324 Q167.8647,706.5605 167.3647,707.3105 Q166.8804,708.0605 166.8804,709.0918 L166.8804,710.1855 Q166.8804,711.4199 167.771,712.248 Q168.6616,713.0605 170.2554,713.0605 Q171.1929,713.0605 171.8491,712.8105 Q172.2397,712.6543 172.6616,712.2168 Q172.9272,711.9512 173.0679,711.873 Q173.2241,711.7949 173.4272,711.7949 Q173.7554,711.7949 174.0054,712.0605 Q174.271,712.3105 174.271,712.6543 Q174.271,712.998 173.9272,713.4043 Q173.4272,713.9824 172.6304,714.3105 Q171.5522,714.7637 170.2554,714.7637 Q168.7397,714.7637 167.5366,714.1387 Q166.5522,713.6387 165.8647,712.5762 Q165.1772,711.498 165.1772,710.2168 L165.1772,709.0605 Q165.1772,707.7324 165.7866,706.5918 Q166.4116,705.4355 167.5054,704.8262 Q168.5991,704.2012 169.8335,704.2012 Q170.5679,704.2012 171.2085,704.373 Q171.8647,704.5293 172.4116,704.8887 Z " fill="#000000"/><text fill="#000000" font-family="sans-serif" font-size="14" lengthAdjust="spacing" textLength="98.0273" x="190.146" y="714.8105">MissoesService</text><line style="stroke:#181818;stroke-width:0.5;" x1="23" x2="422.8193" y1="725.0137" y2="725.0137"/><line style="stroke:#181818;stroke-width:0.5;" x1="23" x2="422.8193" y1="733.0137" y2="733.0137"/><ellipse cx="33" cy="747.8242" fill="#84BE84" rx="3" ry="3" style="stroke:#038048;stroke-width:1.0;"/><text fill="#000000" font-family="sans-serif" font-size="14" lengthAdjust="spacing" textLength="222.5234" x="42" y="752.1211">loadMissoesOnProgramStart(): void</text><ellipse cx="33" cy="766.4453" fill="#84BE84" rx="3" ry="3" style="stroke:#038048;stroke-width:1.0;"/><text fill="#000000" font-family="sans-serif" font-size="14" lengthAdjust="spacing" textLength="266.8682" x="42" y="770.7422">loadMissoesFromFile(filePath: String): void</text><ellipse cx="33" cy="785.0664" fill="#84BE84" rx="3" ry="3" style="stroke:#038048;stroke-width:1.0;"/><text fill="#000000" font-family="sans-serif" font-size="14" lengthAdjust="spacing" textLength="262.9854" x="42" y="789.3633">exportMissoesToFile(filePath: String): void</text><rect fill="#F24D5C" height="6" style="stroke:#C82930;stroke-width:1.0;" width="6" x="30" y="800.6875"/><text fill="#000000" font-family="sans-serif" font-size="14" lengthAdjust="spacing" textLength="247.3994" x="42" y="807.9844">missaoToString(missao: Missao): String</text><ellipse cx="33" cy="822.3086" fill="#84BE84" rx="3" ry="3" style="stroke:#038048;stroke-width:1.0;"/><text fill="#000000" font-family="sans-serif" font-size="14" lengthAdjust="spacing" textLength="213.1855" x="42" y="826.6055">removeMissao(name: String): void</text><ellipse cx="33" cy="840.9297" fill="#84BE84" rx="3" ry="3" style="stroke:#038048;stroke-width:1.0;"/><text fill="#000000" font-family="sans-serif" font-size="14" lengthAdjust="spacing" textLength="111.2412" x="42" y="845.2266">listMissoes(): void</text><ellipse cx="33" cy="859.5508" fill="#84BE84" rx="3" ry="3" style="stroke:#038048;stroke-width:1.0;"/><text fill="#000000" font-family="sans-serif" font-size="14" lengthAdjust="spacing" textLength="336.9297" x="42" y="863.8477">calculateMissaoDistance(nomeMissao: String): double</text><ellipse cx="33" cy="878.1719" fill="#84BE84" rx="3" ry="3" style="stroke:#038048;stroke-width:1.0;"/><text fill="#000000" font-family="sans-serif" font-size="14" lengthAdjust="spacing" textLength="375.8193" x="42" y="882.4688">calculateMissaoEstimatedTime(nomeMissao: String): double</text><ellipse cx="33" cy="896.793" fill="#84BE84" rx="3" ry="3" style="stroke:#038048;stroke-width:1.0;"/><text fill="#000000" font-family="sans-serif" font-size="14" lengthAdjust="spacing" textLength="259.1025" x="42" y="901.0898">validateMissao(nomeMissao: String): void</text></g><!--class ModelosParser--><g id="elem_ModelosParser"><rect codeLine="107" fill="#F1F1F1" height="215.5898" id="ModelosParser" rx="2.5" ry="2.5" style="stroke:#181818;stroke-width:0.5;" width="349.709" x="517" y="359.0137"/><ellipse cx="640.5288" cy="375.0137" fill="#A9DCDF" rx="11" ry="11" style="stroke:#181818;stroke-width:1.0;"/><path d="M642.7163,376.7793 L638.5757,376.7793 L638.1538,377.8105 L638.5757,377.8105 Q639.1851,377.8105 639.4507,378.0449 Q639.7163,378.2793 639.7163,378.6699 Q639.7163,379.0449 639.4507,379.2793 Q639.1851,379.5137 638.5757,379.5137 L636.2788,379.5137 Q635.6694,379.5137 635.4194,379.2793 Q635.1538,379.0449 635.1538,378.6543 Q635.1538,378.2793 635.4351,378.0449 Q635.7007,377.7949 636.3257,377.8105 L638.9976,371.1543 L637.8882,371.1543 Q637.2788,371.1543 637.0132,370.9199 Q636.7476,370.6855 636.7476,370.2949 Q636.7476,369.9199 637.0132,369.6855 Q637.2788,369.4512 637.8882,369.4512 L641.5601,369.4512 L644.9507,377.8105 Q645.5444,377.8105 645.7319,377.9512 Q646.1226,378.2168 646.1226,378.6699 Q646.1226,379.0449 645.8569,379.2793 Q645.6069,379.5137 644.9976,379.5137 L642.7007,379.5137 Q642.0913,379.5137 641.8257,379.2793 Q641.5601,379.0449 641.5601,378.6543 Q641.5601,378.2793 641.8257,378.0449 Q642.0913,377.8105 642.7007,377.8105 L643.1226,377.8105 L642.7163,376.7793 Z M641.9976,375.0762 L640.6382,371.7012 L639.2632,375.0762 L641.9976,375.0762 Z " fill="#000000"/><text fill="#000000" font-family="sans-serif" font-size="14" font-style="italic" lengthAdjust="spacing" textLength="94.1514" x="661.0288" y="380.8105">ModelosParser</text><line style="stroke:#181818;stroke-width:0.5;" x1="518" x2="865.709" y1="391.0137" y2="391.0137"/><line style="stroke:#181818;stroke-width:0.5;" x1="518" x2="865.709" y1="399.0137" y2="399.0137"/><ellipse cx="528" cy="413.8242" fill="#84BE84" rx="3" ry="3" style="stroke:#038048;stroke-width:1.0;"/><text fill="#000000" font-family="sans-serif" font-size="14" lengthAdjust="spacing" textLength="157.1855" x="537" y="418.1211">modelo(): ModeloContext</text><ellipse cx="528" cy="432.4453" fill="#84BE84" rx="3" ry="3" style="stroke:#038048;stroke-width:1.0;"/><text fill="#000000" font-family="sans-serif" font-size="14" lengthAdjust="spacing" textLength="210.0752" x="537" y="436.7422">certificacao(): CertificacaoContext</text><ellipse cx="528" cy="451.0664" fill="#84BE84" rx="3" ry="3" style="stroke:#038048;stroke-width:1.0;"/><text fill="#000000" font-family="sans-serif" font-size="14" lengthAdjust="spacing" textLength="181.3027" x="537" y="455.3633">sensores(): SensoresContext</text><ellipse cx="528" cy="469.6875" fill="#84BE84" rx="3" ry="3" style="stroke:#038048;stroke-width:1.0;"/><text fill="#000000" font-family="sans-serif" font-size="14" lengthAdjust="spacing" textLength="151.7305" x="537" y="473.9844">sensor(): SensorContext</text><ellipse cx="528" cy="488.3086" fill="#84BE84" rx="3" ry="3" style="stroke:#038048;stroke-width:1.0;"/><text fill="#000000" font-family="sans-serif" font-size="14" lengthAdjust="spacing" textLength="323.709" x="537" y="492.6055">limites_operacionais(): Limites_operacionaisContext</text><ellipse cx="528" cy="506.9297" fill="#84BE84" rx="3" ry="3" style="stroke:#038048;stroke-width:1.0;"/><text fill="#000000" font-family="sans-serif" font-size="14" lengthAdjust="spacing" textLength="135.3652" x="537" y="511.2266">limite(): LimiteContext</text><ellipse cx="528" cy="525.5508" fill="#84BE84" rx="3" ry="3" style="stroke:#038048;stroke-width:1.0;"/><text fill="#000000" font-family="sans-serif" font-size="14" lengthAdjust="spacing" textLength="192.165" x="537" y="529.8477">restricoes(): RestricoesContext</text><ellipse cx="528" cy="544.1719" fill="#84BE84" rx="3" ry="3" style="stroke:#038048;stroke-width:1.0;"/><text fill="#000000" font-family="sans-serif" font-size="14" lengthAdjust="spacing" textLength="178.165" x="537" y="548.4688">restricao(): RestricaoContext</text><ellipse cx="528" cy="562.793" fill="#84BE84" rx="3" ry="3" style="stroke:#038048;stroke-width:1.0;"/><text fill="#000000" font-family="sans-serif" font-size="14" lengthAdjust="spacing" textLength="171.1855" x="537" y="567.0898">modelos(): ModelosContext</text></g><!--class DronesParser--><g id="elem_DronesParser"><rect codeLine="119" fill="#F1F1F1" height="103.8633" id="DronesParser" rx="2.5" ry="2.5" style="stroke:#181818;stroke-width:0.5;" width="179.2891" x="602.5" y="220.0137"/><ellipse cx="644.9157" cy="236.0137" fill="#A9DCDF" rx="11" ry="11" style="stroke:#181818;stroke-width:1.0;"/><path d="M647.1032,237.7793 L642.9626,237.7793 L642.5407,238.8105 L642.9626,238.8105 Q643.572,238.8105 643.8376,239.0449 Q644.1032,239.2793 644.1032,239.6699 Q644.1032,240.0449 643.8376,240.2793 Q643.572,240.5137 642.9626,240.5137 L640.6657,240.5137 Q640.0563,240.5137 639.8063,240.2793 Q639.5407,240.0449 639.5407,239.6543 Q639.5407,239.2793 639.822,239.0449 Q640.0876,238.7949 640.7126,238.8105 L643.3845,232.1543 L642.2751,232.1543 Q641.6657,232.1543 641.4001,231.9199 Q641.1345,231.6855 641.1345,231.2949 Q641.1345,230.9199 641.4001,230.6855 Q641.6657,230.4512 642.2751,230.4512 L645.947,230.4512 L649.3376,238.8105 Q649.9313,238.8105 650.1188,238.9512 Q650.5095,239.2168 650.5095,239.6699 Q650.5095,240.0449 650.2438,240.2793 Q649.9938,240.5137 649.3845,240.5137 L647.0876,240.5137 Q646.4782,240.5137 646.2126,240.2793 Q645.947,240.0449 645.947,239.6543 Q645.947,239.2793 646.2126,239.0449 Q646.4782,238.8105 647.0876,238.8105 L647.5095,238.8105 L647.1032,237.7793 Z M646.3845,236.0762 L645.0251,232.7012 L643.6501,236.0762 L646.3845,236.0762 Z " fill="#000000"/><text fill="#000000" font-family="sans-serif" font-size="14" font-style="italic" lengthAdjust="spacing" textLength="86.3652" x="665.0081" y="241.8105">DronesParser</text><line style="stroke:#181818;stroke-width:0.5;" x1="603.5" x2="780.7891" y1="252.0137" y2="252.0137"/><line style="stroke:#181818;stroke-width:0.5;" x1="603.5" x2="780.7891" y1="260.0137" y2="260.0137"/><ellipse cx="613.5" cy="274.8242" fill="#84BE84" rx="3" ry="3" style="stroke:#038048;stroke-width:1.0;"/><text fill="#000000" font-family="sans-serif" font-size="14" lengthAdjust="spacing" textLength="139.2891" x="622.5" y="279.1211">drone(): DroneContext</text><ellipse cx="613.5" cy="293.4453" fill="#84BE84" rx="3" ry="3" style="stroke:#038048;stroke-width:1.0;"/><text fill="#000000" font-family="sans-serif" font-size="14" lengthAdjust="spacing" textLength="150.9717" x="622.5" y="297.7422">estado(): EstadoContext</text><ellipse cx="613.5" cy="312.0664" fill="#84BE84" rx="3" ry="3" style="stroke:#038048;stroke-width:1.0;"/><text fill="#000000" font-family="sans-serif" font-size="14" lengthAdjust="spacing" textLength="153.2891" x="622.5" y="316.3633">drones(): DronesContext</text></g><!--class MissoesParser--><g id="elem_MissoesParser"><rect codeLine="125" fill="#F1F1F1" height="141.1055" id="MissoesParser" rx="2.5" ry="2.5" style="stroke:#181818;stroke-width:0.5;" width="281.2334" x="551.5" y="43.5137"/><ellipse cx="641.5771" cy="59.5137" fill="#A9DCDF" rx="11" ry="11" style="stroke:#181818;stroke-width:1.0;"/><path d="M643.7646,61.2793 L639.624,61.2793 L639.2021,62.3105 L639.624,62.3105 Q640.2334,62.3105 640.499,62.5449 Q640.7646,62.7793 640.7646,63.1699 Q640.7646,63.5449 640.499,63.7793 Q640.2334,64.0137 639.624,64.0137 L637.3271,64.0137 Q636.7178,64.0137 636.4678,63.7793 Q636.2021,63.5449 636.2021,63.1543 Q636.2021,62.7793 636.4834,62.5449 Q636.749,62.2949 637.374,62.3105 L640.0459,55.6543 L638.9365,55.6543 Q638.3271,55.6543 638.0615,55.4199 Q637.7959,55.1855 637.7959,54.7949 Q637.7959,54.4199 638.0615,54.1855 Q638.3271,53.9512 638.9365,53.9512 L642.6084,53.9512 L645.999,62.3105 Q646.5928,62.3105 646.7803,62.4512 Q647.1709,62.7168 647.1709,63.1699 Q647.1709,63.5449 646.9053,63.7793 Q646.6553,64.0137 646.0459,64.0137 L643.749,64.0137 Q643.1396,64.0137 642.874,63.7793 Q642.6084,63.5449 642.6084,63.1543 Q642.6084,62.7793 642.874,62.5449 Q643.1396,62.3105 643.749,62.3105 L644.1709,62.3105 L643.7646,61.2793 Z M643.0459,59.5762 L641.6865,56.2012 L640.3115,59.5762 L643.0459,59.5762 Z " fill="#000000"/><text fill="#000000" font-family="sans-serif" font-size="14" font-style="italic" lengthAdjust="spacing" textLength="92.5791" x="662.0771" y="65.3105">MissoesParser</text><line style="stroke:#181818;stroke-width:0.5;" x1="552.5" x2="831.7334" y1="75.5137" y2="75.5137"/><line style="stroke:#181818;stroke-width:0.5;" x1="552.5" x2="831.7334" y1="83.5137" y2="83.5137"/><ellipse cx="562.5" cy="98.3242" fill="#84BE84" rx="3" ry="3" style="stroke:#038048;stroke-width:1.0;"/><text fill="#000000" font-family="sans-serif" font-size="14" lengthAdjust="spacing" textLength="154.041" x="571.5" y="102.6211">missao(): MissaoContext</text><ellipse cx="562.5" cy="116.9453" fill="#84BE84" rx="3" ry="3" style="stroke:#038048;stroke-width:1.0;"/><text fill="#000000" font-family="sans-serif" font-size="14" lengthAdjust="spacing" textLength="161.8682" x="571.5" y="121.2422">entrega(): EntregaContext</text><ellipse cx="562.5" cy="135.5664" fill="#84BE84" rx="3" ry="3" style="stroke:#038048;stroke-width:1.0;"/><text fill="#000000" font-family="sans-serif" font-size="14" lengthAdjust="spacing" textLength="208.5508" x="571.5" y="139.8633">localizacao(): LocalizacaoContext</text><ellipse cx="562.5" cy="154.1875" fill="#84BE84" rx="3" ry="3" style="stroke:#038048;stroke-width:1.0;"/><text fill="#000000" font-family="sans-serif" font-size="14" lengthAdjust="spacing" textLength="216.3643" x="571.5" y="158.4844">coordenada(): CoordenadaContext</text><ellipse cx="562.5" cy="172.8086" fill="#84BE84" rx="3" ry="3" style="stroke:#038048;stroke-width:1.0;"/><text fill="#000000" font-family="sans-serif" font-size="14" lengthAdjust="spacing" textLength="255.2334" x="571.5" y="177.1055">estado_missao(): Estado_missaoContext</text></g><!--class ModelosVisitorImpl--><g id="elem_ModelosVisitorImpl"><rect codeLine="133" fill="#F1F1F1" height="103.8633" id="ModelosVisitorImpl" rx="2.5" ry="2.5" style="stroke:#181818;stroke-width:0.5;" width="274.9854" x="1069.5" y="471.0137"/><ellipse cx="1143.6118" cy="487.0137" fill="#ADD1B2" rx="11" ry="11" style="stroke:#181818;stroke-width:1.0;"/><path d="M1146.3774,482.8887 Q1146.5337,482.6699 1146.7212,482.5605 Q1146.9087,482.4512 1147.1274,482.4512 Q1147.5024,482.4512 1147.7368,482.7168 Q1147.9712,482.9668 1147.9712,483.5762 L1147.9712,485.0293 Q1147.9712,485.6387 1147.7368,485.9043 Q1147.5024,486.1699 1147.1274,486.1699 Q1146.7837,486.1699 1146.5806,485.9668 Q1146.3774,485.7793 1146.2681,485.2637 Q1146.2212,484.9043 1146.0337,484.7168 Q1145.7056,484.3418 1145.0962,484.123 Q1144.4868,483.9043 1143.8618,483.9043 Q1143.0962,483.9043 1142.4556,484.2324 Q1141.8306,484.5605 1141.3306,485.3105 Q1140.8462,486.0605 1140.8462,487.0918 L1140.8462,488.1855 Q1140.8462,489.4199 1141.7368,490.248 Q1142.6274,491.0605 1144.2212,491.0605 Q1145.1587,491.0605 1145.8149,490.8105 Q1146.2056,490.6543 1146.6274,490.2168 Q1146.8931,489.9512 1147.0337,489.873 Q1147.1899,489.7949 1147.3931,489.7949 Q1147.7212,489.7949 1147.9712,490.0605 Q1148.2368,490.3105 1148.2368,490.6543 Q1148.2368,490.998 1147.8931,491.4043 Q1147.3931,491.9824 1146.5962,492.3105 Q1145.5181,492.7637 1144.2212,492.7637 Q1142.7056,492.7637 1141.5024,492.1387 Q1140.5181,491.6387 1139.8306,490.5762 Q1139.1431,489.498 1139.1431,488.2168 L1139.1431,487.0605 Q1139.1431,485.7324 1139.7524,484.5918 Q1140.3774,483.4355 1141.4712,482.8262 Q1142.5649,482.2012 1143.7993,482.2012 Q1144.5337,482.2012 1145.1743,482.373 Q1145.8306,482.5293 1146.3774,482.8887 Z " fill="#000000"/><text fill="#000000" font-family="sans-serif" font-size="14" lengthAdjust="spacing" textLength="118.2617" x="1164.1118" y="492.8105">ModelosVisitorImpl</text><line style="stroke:#181818;stroke-width:0.5;" x1="1070.5" x2="1343.4854" y1="503.0137" y2="503.0137"/><ellipse cx="1080.5" cy="517.8242" fill="none" rx="3" ry="3" style="stroke:#038048;stroke-width:1.0;"/><text fill="#000000" font-family="sans-serif" font-size="14" lengthAdjust="spacing" textLength="144.751" x="1089.5" y="522.1211">modelos: List&lt;Modelo&gt;</text><line style="stroke:#181818;stroke-width:0.5;" x1="1070.5" x2="1343.4854" y1="529.6348" y2="529.6348"/><ellipse cx="1080.5" cy="544.4453" fill="#84BE84" rx="3" ry="3" style="stroke:#038048;stroke-width:1.0;"/><text fill="#000000" font-family="sans-serif" font-size="14" lengthAdjust="spacing" textLength="248.9854" x="1089.5" y="548.7422">visitModelos(ctx: ModelosContext): Void</text><ellipse cx="1080.5" cy="563.0664" fill="#84BE84" rx="3" ry="3" style="stroke:#038048;stroke-width:1.0;"/><text fill="#000000" font-family="sans-serif" font-size="14" lengthAdjust="spacing" textLength="234.9854" x="1089.5" y="567.3633">visitModelo(ctx: ModeloContext): Void</text></g><!--class MissoesModelVisitor--><g id="elem_MissoesModelVisitor"><rect codeLine="139" fill="#F1F1F1" height="178.3477" id="MissoesModelVisitor" rx="2.5" ry="2.5" style="stroke:#181818;stroke-width:0.5;" width="420.4951" x="997" y="258.0137"/><ellipse cx="1138.8115" cy="274.0137" fill="#ADD1B2" rx="11" ry="11" style="stroke:#181818;stroke-width:1.0;"/><path d="M1141.5771,269.8887 Q1141.7334,269.6699 1141.9209,269.5605 Q1142.1084,269.4512 1142.3271,269.4512 Q1142.7021,269.4512 1142.9365,269.7168 Q1143.1709,269.9668 1143.1709,270.5762 L1143.1709,272.0293 Q1143.1709,272.6387 1142.9365,272.9043 Q1142.7021,273.1699 1142.3271,273.1699 Q1141.9834,273.1699 1141.7803,272.9668 Q1141.5771,272.7793 1141.4678,272.2637 Q1141.4209,271.9043 1141.2334,271.7168 Q1140.9053,271.3418 1140.2959,271.123 Q1139.6865,270.9043 1139.0615,270.9043 Q1138.2959,270.9043 1137.6553,271.2324 Q1137.0303,271.5605 1136.5303,272.3105 Q1136.0459,273.0605 1136.0459,274.0918 L1136.0459,275.1855 Q1136.0459,276.4199 1136.9365,277.248 Q1137.8271,278.0605 1139.4209,278.0605 Q1140.3584,278.0605 1141.0146,277.8105 Q1141.4053,277.6543 1141.8271,277.2168 Q1142.0928,276.9512 1142.2334,276.873 Q1142.3896,276.7949 1142.5928,276.7949 Q1142.9209,276.7949 1143.1709,277.0605 Q1143.4365,277.3105 1143.4365,277.6543 Q1143.4365,277.998 1143.0928,278.4043 Q1142.5928,278.9824 1141.7959,279.3105 Q1140.7178,279.7637 1139.4209,279.7637 Q1137.9053,279.7637 1136.7021,279.1387 Q1135.7178,278.6387 1135.0303,277.5762 Q1134.3428,276.498 1134.3428,275.2168 L1134.3428,274.0605 Q1134.3428,272.7324 1134.9521,271.5918 Q1135.5771,270.4355 1136.6709,269.8262 Q1137.7646,269.2012 1138.999,269.2012 Q1139.7334,269.2012 1140.374,269.373 Q1141.0303,269.5293 1141.5771,269.8887 Z " fill="#000000"/><text fill="#000000" font-family="sans-serif" font-size="14" lengthAdjust="spacing" textLength="128.3721" x="1159.3115" y="279.8105">MissoesModelVisitor</text><line style="stroke:#181818;stroke-width:0.5;" x1="998" x2="1416.4951" y1="290.0137" y2="290.0137"/><line style="stroke:#181818;stroke-width:0.5;" x1="998" x2="1416.4951" y1="298.0137" y2="298.0137"/><ellipse cx="1008" cy="312.8242" fill="#84BE84" rx="3" ry="3" style="stroke:#038048;stroke-width:1.0;"/><text fill="#000000" font-family="sans-serif" font-size="14" lengthAdjust="spacing" textLength="300.3027" x="1017" y="317.1211">visitMissoes(ctx: MissoesContext): List&lt;Missao&gt;</text><ellipse cx="1008" cy="331.4453" fill="#84BE84" rx="3" ry="3" style="stroke:#038048;stroke-width:1.0;"/><text fill="#000000" font-family="sans-serif" font-size="14" lengthAdjust="spacing" textLength="248.165" x="1017" y="335.7422">visitMissao(ctx: MissaoContext): Missao</text><ellipse cx="1008" cy="350.0664" fill="#84BE84" rx="3" ry="3" style="stroke:#038048;stroke-width:1.0;"/><text fill="#000000" font-family="sans-serif" font-size="14" lengthAdjust="spacing" textLength="314.3711" x="1017" y="354.3633">visitEntregas(ctx: EntregasContext): List&lt;Entrega&gt;</text><ellipse cx="1008" cy="368.6875" fill="#84BE84" rx="3" ry="3" style="stroke:#038048;stroke-width:1.0;"/><text fill="#000000" font-family="sans-serif" font-size="14" lengthAdjust="spacing" textLength="262.2334" x="1017" y="372.9844">visitEntrega(ctx: EntregaContext): Entrega</text><ellipse cx="1008" cy="387.3086" fill="#84BE84" rx="3" ry="3" style="stroke:#038048;stroke-width:1.0;"/><text fill="#000000" font-family="sans-serif" font-size="14" lengthAdjust="spacing" textLength="336.9434" x="1017" y="391.6055">visitLocalizacao(ctx: LocalizacaoContext): Localizacao</text><ellipse cx="1008" cy="405.9297" fill="#84BE84" rx="3" ry="3" style="stroke:#038048;stroke-width:1.0;"/><text fill="#000000" font-family="sans-serif" font-size="14" lengthAdjust="spacing" textLength="394.4951" x="1017" y="410.2266">visitEstado_missao(ctx: Estado_missaoContext): EstadoMissao</text><ellipse cx="1008" cy="424.5508" fill="#84BE84" rx="3" ry="3" style="stroke:#038048;stroke-width:1.0;"/><text fill="#000000" font-family="sans-serif" font-size="14" lengthAdjust="spacing" textLength="313.6191" x="1017" y="428.8477">visitCoordenada(ctx: CoordenadaContext): Double</text></g><!--link Frota to Drone--><g id="link_Frota_Drone"><path codeLine="151" d="M1729.6669,1056.3952 C1761.4169,1068.6052 1790.06,1080.5737 1822,1096.0137 C1845.85,1107.5437 1855.1426,1112.0941 1878.6826,1125.4441 " fill="none" id="Frota-Drone" style="stroke:#181818;stroke-width:1.0;"/><line style="stroke:#181818;stroke-width:1.0;" x1="1724.4977" x2="1727.3692" y1="1058.6929" y2="1051.226"/><line style="stroke:#181818;stroke-width:1.0;" x1="1727.2978" x2="1730.1693" y1="1059.7697" y2="1052.3028"/><line style="stroke:#181818;stroke-width:1.0;" x1="1729.6669" x2="1722.2" y1="1056.3952" y2="1053.5237"/><line style="stroke:#181818;stroke-width:1.0;" x1="1887.3812" x2="1897.2999" y1="1130.3772" y2="1129.1046"/><line style="stroke:#181818;stroke-width:1.0;" x1="1887.3812" x2="1891.3801" y1="1130.3772" y2="1139.5428"/><line style="stroke:#181818;stroke-width:1.0;" x1="1887.3812" x2="1894.34" y1="1130.3772" y2="1134.3237"/><ellipse cx="1882.1621" cy="1127.4173" fill="none" rx="4" ry="4" style="stroke:#181818;stroke-width:1.0;"/><text fill="#000000" font-family="sans-serif" font-size="13" lengthAdjust="spacing" textLength="48.4199" x="1764" y="1064.042">contains</text></g><!--link Frota to Modelo--><g id="link_Frota_Modelo"><path codeLine="152" d="M1729.9723,1031.9296 C1761.3723,1034.9896 1789.34,1037.7337 1822,1041.0137 C1972.71,1056.1437 2010.79,1056.5537 2161,1076.0137 C2194.58,1080.3637 2213.3601,1083.0275 2246.1801,1088.2075 " fill="none" id="Frota-Modelo" style="stroke:#181818;stroke-width:1.0;"/><line style="stroke:#181818;stroke-width:1.0;" x1="1725.6032" x2="1726.3791" y1="1035.5228" y2="1027.5605"/><line style="stroke:#181818;stroke-width:1.0;" x1="1728.589" x2="1729.365" y1="1035.8138" y2="1027.8515"/><line style="stroke:#181818;stroke-width:1.0;" x1="1729.9723" x2="1722.01" y1="1031.9296" y2="1031.1537"/><line style="stroke:#181818;stroke-width:1.0;" x1="2256.0578" x2="2264.8954" y1="1089.7665" y2="1085.087"/><line style="stroke:#181818;stroke-width:1.0;" x1="2256.0578" x2="2263.0246" y1="1089.7665" y2="1096.9403"/><line style="stroke:#181818;stroke-width:1.0;" x1="2256.0578" x2="2263.96" y1="1089.7665" y2="1091.0137"/><ellipse cx="2250.1312" cy="1088.8311" fill="none" rx="4" ry="4" style="stroke:#181818;stroke-width:1.0;"/><text fill="#000000" font-family="sans-serif" font-size="13" lengthAdjust="spacing" textLength="48.4199" x="1982.5" y="1041.042">contains</text></g><!--link Drone to Modelo--><g id="link_Drone_Modelo"><path codeLine="153" d="M2136.3818,1168.2198 C2182.6218,1156.0998 2210.7816,1148.7128 2256.0116,1136.8528 " fill="none" id="Drone-Modelo" style="stroke:#181818;stroke-width:1.0;"/><line style="stroke:#181818;stroke-width:1.0;" x1="2126.7086" x2="2120.4913" y1="1170.7553" y2="1178.5876"/><line style="stroke:#181818;stroke-width:1.0;" x1="2126.7086" x2="2117.4487" y1="1170.7553" y2="1166.9797"/><line style="stroke:#181818;stroke-width:1.0;" x1="2126.7086" x2="2118.97" y1="1170.7553" y2="1172.7837"/><ellipse cx="2132.5125" cy="1169.234" fill="none" rx="4" ry="4" style="stroke:#181818;stroke-width:1.0;"/><line style="stroke:#181818;stroke-width:1.0;" x1="2258.8662" x2="2260.8954" y1="1131.969" y2="1139.7074"/><line style="stroke:#181818;stroke-width:1.0;" x1="2255.9643" x2="2257.9935" y1="1132.73" y2="1140.4683"/><line style="stroke:#181818;stroke-width:1.0;" x1="2256.0116" x2="2263.75" y1="1136.8528" y2="1134.8237"/><text fill="#000000" font-family="sans-serif" font-size="13" lengthAdjust="spacing" textLength="27.46" x="2199" y="1140.042">uses</text></g><!--link Missoes to Missao--><g id="link_Missoes_Missao"><path codeLine="155" d="M1299.1379,804.4552 C1373.3379,812.9652 1455.747,822.4149 1530.987,831.0349 " fill="none" id="Missoes-Missao" style="stroke:#181818;stroke-width:1.0;"/><line style="stroke:#181818;stroke-width:1.0;" x1="1294.7082" x2="1295.6197" y1="807.9734" y2="800.0255"/><line style="stroke:#181818;stroke-width:1.0;" x1="1297.6886" x2="1298.6002" y1="808.3152" y2="800.3673"/><line style="stroke:#181818;stroke-width:1.0;" x1="1299.1379" x2="1291.19" y1="804.4552" y2="803.5437"/><line style="stroke:#181818;stroke-width:1.0;" x1="1540.922" x2="1549.5529" y1="832.1731" y2="827.1227"/><line style="stroke:#181818;stroke-width:1.0;" x1="1540.922" x2="1548.1871" y1="832.1731" y2="839.0447"/><line style="stroke:#181818;stroke-width:1.0;" x1="1540.922" x2="1548.87" y1="832.1731" y2="833.0837"/><ellipse cx="1534.961" cy="831.4902" fill="none" rx="4" ry="4" style="stroke:#181818;stroke-width:1.0;"/><text fill="#000000" font-family="sans-serif" font-size="13" lengthAdjust="spacing" textLength="48.4199" x="1460" y="819.042">contains</text></g><!--link Missao to Entrega--><g id="link_Missao_Entrega"><path codeLine="156" d="M1731.846,812.2439 C1794.326,791.8739 1853.0674,772.7257 1912.8174,753.2357 " fill="none" id="Missao-Entrega" style="stroke:#181818;stroke-width:1.0;"/><line style="stroke:#181818;stroke-width:1.0;" x1="1729.2829" x2="1726.8031" y1="817.2868" y2="809.6808"/><line style="stroke:#181818;stroke-width:1.0;" x1="1732.1351" x2="1729.6554" y1="816.3569" y2="808.7509"/><line style="stroke:#181818;stroke-width:1.0;" x1="1731.846" x2="1724.24" y1="812.2439" y2="814.7237"/><line style="stroke:#181818;stroke-width:1.0;" x1="1922.3244" x2="1928.0693" y1="750.1346" y2="741.9495"/><line style="stroke:#181818;stroke-width:1.0;" x1="1922.3244" x2="1931.7907" y1="750.1346" y2="753.3579"/><line style="stroke:#181818;stroke-width:1.0;" x1="1922.3244" x2="1929.93" y1="750.1346" y2="747.6537"/><ellipse cx="1916.6202" cy="751.9952" fill="none" rx="4" ry="4" style="stroke:#181818;stroke-width:1.0;"/><text fill="#000000" font-family="sans-serif" font-size="13" lengthAdjust="spacing" textLength="48.4199" x="1764" y="779.042">contains</text></g><!--link Missao to EstadoMissao--><g id="link_Missao_EstadoMissao"><path codeLine="157" d="M1742.0355,858.9192 C1780.1855,864.7192 1800.4411,867.8098 1844.0611,874.4498 " fill="none" id="Missao-EstadoMissao" style="stroke:#181818;stroke-width:1.0;"/><line style="stroke:#181818;stroke-width:1.0;" x1="1732.1491" x2="1723.3382" y1="857.4161" y2="862.1455"/><line style="stroke:#181818;stroke-width:1.0;" x1="1732.1491" x2="1725.1418" y1="857.4161" y2="850.2818"/><line style="stroke:#181818;stroke-width:1.0;" x1="1732.1491" x2="1724.24" y1="857.4161" y2="856.2137"/><ellipse cx="1738.081" cy="858.3179" fill="none" rx="4" ry="4" style="stroke:#181818;stroke-width:1.0;"/><line style="stroke:#181818;stroke-width:1.0;" x1="1848.6175" x2="1847.4136" y1="871.0973" y2="879.0062"/><line style="stroke:#181818;stroke-width:1.0;" x1="1845.6517" x2="1844.4478" y1="870.6458" y2="878.5547"/><line style="stroke:#181818;stroke-width:1.0;" x1="1844.0611" x2="1851.97" y1="874.4498" y2="875.6537"/><text fill="#000000" font-family="sans-serif" font-size="13" lengthAdjust="spacing" textLength="20.96" x="1778" y="858.042">has</text></g><!--link Missao to Drone--><g id="link_Missao_Drone"><path codeLine="158" d="M1714.4624,926.8014 C1756.2724,971.6614 1800.11,1017.2737 1852,1067.0137 C1865.45,1079.9037 1873.8994,1087.8356 1888.2794,1100.8056 " fill="none" id="Missao-Drone" style="stroke:#181818;stroke-width:1.0;"/><line style="stroke:#181818;stroke-width:1.0;" x1="1707.6444" x2="1697.8008" y1="919.486" y2="917.7245"/><line style="stroke:#181818;stroke-width:1.0;" x1="1707.6444" x2="1706.5792" y1="919.486" y2="909.5429"/><line style="stroke:#181818;stroke-width:1.0;" x1="1707.6444" x2="1702.19" y1="919.486" y2="913.6337"/><ellipse cx="1711.7352" cy="923.8752" fill="none" rx="4" ry="4" style="stroke:#181818;stroke-width:1.0;"/><line style="stroke:#181818;stroke-width:1.0;" x1="1893.9288" x2="1888.5706" y1="1100.5143" y2="1106.4549"/><line style="stroke:#181818;stroke-width:1.0;" x1="1891.701" x2="1886.3429" y1="1098.505" y2="1104.4456"/><line style="stroke:#181818;stroke-width:1.0;" x1="1888.2794" x2="1894.22" y1="1100.8056" y2="1106.1637"/><text fill="#000000" font-family="sans-serif" font-size="13" lengthAdjust="spacing" textLength="66.4917" x="1755" y="967.042">assigned to</text></g><!--link Entrega to Localizacao--><g id="link_Entrega_Localizacao"><path codeLine="160" d="M2090.8527,744.3825 C2135.0127,753.2725 2183.92,758.4937 2234,750.0137 C2250.15,747.2837 2259.342,745.2362 2275.342,740.1062 " fill="none" id="Entrega-Localizacao" style="stroke:#181818;stroke-width:1.0;"/><line style="stroke:#181818;stroke-width:1.0;" x1="2086.1419" x2="2087.7207" y1="747.5144" y2="739.6718"/><line style="stroke:#181818;stroke-width:1.0;" x1="2089.0829" x2="2090.6617" y1="748.1065" y2="740.2638"/><line style="stroke:#181818;stroke-width:1.0;" x1="2090.8527" x2="2083.01" y1="744.3825" y2="742.8037"/><line style="stroke:#181818;stroke-width:1.0;" x1="2277.9297" x2="2280.3723" y1="735.0759" y2="742.6939"/><line style="stroke:#181818;stroke-width:1.0;" x1="2275.073" x2="2277.5155" y1="735.9919" y2="743.6099"/><line style="stroke:#181818;stroke-width:1.0;" x1="2275.342" x2="2282.96" y1="740.1062" y2="737.6637"/><text fill="#000000" font-family="sans-serif" font-size="13" lengthAdjust="spacing" textLength="39.7363" x="2193" y="746.042">origem</text></g><!--link Entrega to Localizacao--><g id="link_Entrega_Localizacao"><path codeLine="161" d="M2091.0788,718.5813 C2149.5288,715.4913 2214.3912,712.0462 2274.7012,708.8562 " fill="none" id="Entrega-Localizacao-1" style="stroke:#181818;stroke-width:1.0;"/><line style="stroke:#181818;stroke-width:1.0;" x1="2087.2956" x2="2086.8733" y1="722.7869" y2="714.7981"/><line style="stroke:#181818;stroke-width:1.0;" x1="2090.2914" x2="2089.8691" y1="722.6286" y2="714.6397"/><line style="stroke:#181818;stroke-width:1.0;" x1="2091.0788" x2="2083.09" y1="718.5813" y2="719.0037"/><line style="stroke:#181818;stroke-width:1.0;" x1="2278.4843" x2="2278.9069" y1="704.6505" y2="712.6394"/><line style="stroke:#181818;stroke-width:1.0;" x1="2275.4885" x2="2275.911" y1="704.809" y2="712.7978"/><line style="stroke:#181818;stroke-width:1.0;" x1="2274.7012" x2="2282.69" y1="708.8562" y2="708.4337"/><text fill="#000000" font-family="sans-serif" font-size="13" lengthAdjust="spacing" textLength="41.9199" x="2192" y="708.042">destino</text></g><!--link Localizacao to Coordenada--><g id="link_Localizacao_Coordenada"><path codeLine="163" d="M2458.9806,742.5422 C2490.9106,752.3022 2520.15,756.2737 2554,750.0137 C2563.92,748.1737 2566.6343,747.8427 2576.4343,744.4327 " fill="none" id="Localizacao-Coordenada" style="stroke:#181818;stroke-width:1.0;"/><line style="stroke:#181818;stroke-width:1.0;" x1="2453.986" x2="2456.3246" y1="745.1982" y2="737.5477"/><line style="stroke:#181818;stroke-width:1.0;" x1="2456.855" x2="2459.1935" y1="746.0752" y2="738.4246"/><line style="stroke:#181818;stroke-width:1.0;" x1="2458.9806" x2="2451.33" y1="742.5422" y2="740.2037"/><line style="stroke:#181818;stroke-width:1.0;" x1="2578.8976" x2="2581.5267" y1="739.3404" y2="746.896"/><line style="stroke:#181818;stroke-width:1.0;" x1="2576.0643" x2="2578.6933" y1="740.3263" y2="747.8819"/><line style="stroke:#181818;stroke-width:1.0;" x1="2576.4343" x2="2583.99" y1="744.4327" y2="741.8037"/><text fill="#000000" font-family="sans-serif" font-size="13" lengthAdjust="spacing" textLength="41.9199" x="2506.5" y="746.042">latitude</text></g><!--link Localizacao to Coordenada--><g id="link_Localizacao_Coordenada"><path codeLine="164" d="M2459.0491,708.7403 C2502.1991,710.9903 2537.7008,712.8287 2575.6308,714.7987 " fill="none" id="Localizacao-Coordenada-1" style="stroke:#181818;stroke-width:1.0;"/><line style="stroke:#181818;stroke-width:1.0;" x1="2454.8463" x2="2455.2629" y1="712.5265" y2="704.5374"/><line style="stroke:#181818;stroke-width:1.0;" x1="2457.8422" x2="2458.2588" y1="712.6828" y2="704.6936"/><line style="stroke:#181818;stroke-width:1.0;" x1="2459.0491" x2="2451.06" y1="708.7403" y2="708.3237"/><line style="stroke:#181818;stroke-width:1.0;" x1="2579.8329" x2="2579.4179" y1="711.0116" y2="719.0008"/><line style="stroke:#181818;stroke-width:1.0;" x1="2576.8369" x2="2576.422" y1="710.856" y2="718.8452"/><line style="stroke:#181818;stroke-width:1.0;" x1="2575.6308" x2="2583.62" y1="714.7987" y2="715.2137"/><text fill="#000000" font-family="sans-serif" font-size="13" lengthAdjust="spacing" textLength="52.7681" x="2501" y="707.042">longitude</text></g><!--link FrotaService to Frota--><g id="link_FrotaService_Frota"><path codeLine="167" d="M372.06,1040.9137 C666.68,1036.7437 1312.0406,1027.5987 1544.7806,1024.2987 " fill="none" id="FrotaService-to-Frota" style="stroke:#181818;stroke-width:1.0;stroke-dasharray:7.0,7.0;"/><polygon fill="#181818" points="1550.78,1024.2137,1541.7242,1020.3417,1545.7805,1024.2846,1541.8376,1028.3409,1550.78,1024.2137" style="stroke:#181818;stroke-width:1.0;"/><text fill="#000000" font-family="sans-serif" font-size="13" lengthAdjust="spacing" textLength="53.479" x="905.5" y="1029.042">manages</text></g><!--link FrotaService to Drone--><g id="link_FrotaService_Drone"><path codeLine="168" d="M372.04,1122.1037 C461.74,1162.8137 579.94,1204.0137 691,1204.0137 C691,1204.0137 691,1204.0137 1637.5,1204.0137 C1723.75,1204.0137 1815.3702,1203.4964 1888.3902,1202.9764 " fill="none" id="FrotaService-to-Drone" style="stroke:#181818;stroke-width:1.0;stroke-dasharray:7.0,7.0;"/><polygon fill="#181818" points="1894.39,1202.9337,1885.3617,1198.9979,1889.3901,1202.9693,1885.4187,1206.9977,1894.39,1202.9337" style="stroke:#181818;stroke-width:1.0;"/><text fill="#000000" font-family="sans-serif" font-size="13" lengthAdjust="spacing" textLength="68.6626" x="1173" y="1200.042">operates on</text></g><!--link FrotaService to Modelo--><g id="link_FrotaService_Modelo"><path codeLine="169" d="M303.04,1141.6337 C387.95,1235.6637 532.27,1363.0137 691,1363.0137 C691,1363.0137 691,1363.0137 2007.5,1363.0137 C2077.57,1363.0137 2100.34,1362.0937 2161,1327.0137 C2205.52,1301.2637 2242.2171,1267.2899 2275.3971,1229.7399 " fill="none" id="FrotaService-to-Modelo" style="stroke:#181818;stroke-width:1.0;stroke-dasharray:7.0,7.0;"/><polygon fill="#181818" points="2279.37,1225.2437,2270.4131,1229.3393,2276.0592,1228.9905,2276.4081,1234.6366,2279.37,1225.2437" style="stroke:#181818;stroke-width:1.0;"/><text fill="#000000" font-family="sans-serif" font-size="13" lengthAdjust="spacing" textLength="68.6626" x="1450" y="1359.042">operates on</text></g><!--link MissoesService to Missoes--><g id="link_MissoesService_Missoes"><path codeLine="170" d="M424.2,799.5837 C638.88,798.0537 963.4902,795.7467 1116.7302,794.6467 " fill="none" id="MissoesService-to-Missoes" style="stroke:#181818;stroke-width:1.0;stroke-dasharray:7.0,7.0;"/><polygon fill="#181818" points="1122.73,794.6037,1113.7015,790.6684,1117.7301,794.6396,1113.7589,798.6682,1122.73,794.6037" style="stroke:#181818;stroke-width:1.0;"/><text fill="#000000" font-family="sans-serif" font-size="13" lengthAdjust="spacing" textLength="53.479" x="665.5" y="793.042">manages</text></g><!--link MissoesService to Missao--><g id="link_MissoesService_Missao"><path codeLine="171" d="M424.07,815.5337 C580.06,826.0937 802.17,839.4737 997,845.0137 C1194.25,850.6237 1243.67,846.0237 1441,845.0137 C1476.29,844.8337 1509.1804,844.5296 1542.8504,844.1596 " fill="none" id="MissoesService-to-Missao" style="stroke:#181818;stroke-width:1.0;stroke-dasharray:7.0,7.0;"/><polygon fill="#181818" points="1548.85,844.0937,1539.8066,840.1928,1543.8503,844.1486,1539.8945,848.1923,1548.85,844.0937" style="stroke:#181818;stroke-width:1.0;"/><text fill="#000000" font-family="sans-serif" font-size="13" lengthAdjust="spacing" textLength="68.6626" x="898" y="838.042">operates on</text></g><!--link MissoesService to Drone--><g id="link_MissoesService_Drone"><path codeLine="172" d="M424.04,846.0437 C800.01,930.6637 1594.7865,1109.5661 1888.5765,1175.6961 " fill="none" id="MissoesService-to-Drone" style="stroke:#181818;stroke-width:1.0;stroke-dasharray:7.0,7.0;"/><polygon fill="#181818" points="1894.43,1177.0137,1886.5281,1171.1349,1889.552,1175.9157,1884.7713,1178.9396,1894.43,1177.0137" style="stroke:#181818;stroke-width:1.0;"/><text fill="#000000" font-family="sans-serif" font-size="13" lengthAdjust="spacing" textLength="114.8926" x="1150" y="972.042">validates availability</text></g><!--link ModelosVisitorImpl to Modelo--><g id="link_ModelosVisitorImpl_Modelo"><path codeLine="175" d="M1344.54,538.2037 C1603.51,567.1437 2142.07,627.9137 2161,635.0137 C2197.82,648.8237 2210.63,653.3837 2234,685.0137 C2238.75,691.4437 2291.2517,862.174 2328.7017,985.124 " fill="none" id="ModelosVisitorImpl-to-Modelo" style="stroke:#181818;stroke-width:1.0;stroke-dasharray:7.0,7.0;"/><polygon fill="#181818" points="2330.45,990.8637,2331.654,981.0887,2328.9931,986.0806,2324.0012,983.4197,2330.45,990.8637" style="stroke:#181818;stroke-width:1.0;"/><text fill="#000000" font-family="sans-serif" font-size="13" lengthAdjust="spacing" textLength="42.6309" x="1767" y="582.042">creates</text></g><!--link MissoesModelVisitor to Missao--><g id="link_MissoesModelVisitor_Missao"><path codeLine="176" d="M1417.18,426.9837 C1425.98,434.8837 1434.01,443.5337 1441,453.0137 C1457.74,475.7337 1440.06,489.2437 1449,516.0137 C1480.57,610.5437 1537.3298,703.5365 1580.7998,767.2865 " fill="none" id="MissoesModelVisitor-to-Missao" style="stroke:#181818;stroke-width:1.0;stroke-dasharray:7.0,7.0;"/><polygon fill="#181818" points="1584.18,772.2437,1582.4145,762.5544,1581.3631,768.1127,1575.8048,767.0613,1584.18,772.2437" style="stroke:#181818;stroke-width:1.0;"/><text fill="#000000" font-family="sans-serif" font-size="13" lengthAdjust="spacing" textLength="42.6309" x="1463" y="512.042">creates</text></g><!--link MissoesModelVisitor to Entrega--><g id="link_MissoesModelVisitor_Entrega"><path codeLine="177" d="M1405.65,436.1537 C1417.64,441.8037 1429.5,447.4537 1441,453.0137 C1581.83,521.1137 1612.61,547.0637 1754,614.0137 C1812.39,641.6637 1874.039,668.3081 1924.269,689.4281 " fill="none" id="MissoesModelVisitor-to-Entrega" style="stroke:#181818;stroke-width:1.0;stroke-dasharray:7.0,7.0;"/><polygon fill="#181818" points="1929.8,691.7537,1923.0539,684.578,1925.1909,689.8157,1919.9532,691.9526,1929.8,691.7537" style="stroke:#181818;stroke-width:1.0;"/><text fill="#000000" font-family="sans-serif" font-size="13" lengthAdjust="spacing" textLength="42.6309" x="1615.5" y="505.042">creates</text></g><!--link MissoesModelVisitor to Localizacao--><g id="link_MissoesModelVisitor_Localizacao"><path codeLine="178" d="M1417.09,346.8837 C1635.27,355.5837 1980.29,394.9037 2234,545.0137 C2277.38,570.6837 2309.6405,611.0327 2332.8605,646.7627 " fill="none" id="MissoesModelVisitor-to-Localizacao" style="stroke:#181818;stroke-width:1.0;stroke-dasharray:7.0,7.0;"/><polygon fill="#181818" points="2336.13,651.7937,2334.5797,642.0676,2333.4054,647.6012,2327.8718,646.4269,2336.13,651.7937" style="stroke:#181818;stroke-width:1.0;"/><text fill="#000000" font-family="sans-serif" font-size="13" lengthAdjust="spacing" textLength="42.6309" x="1767" y="380.042">creates</text></g><!--link ModelosParser to ModelosVisitorImpl--><g id="link_ModelosParser_ModelosVisitorImpl"><path codeLine="180" d="M867.04,486.0137 C933,493.2137 1001.1354,500.653 1063.1954,507.423 " fill="none" id="ModelosParser-to-ModelosVisitorImpl" style="stroke:#181818;stroke-width:1.0;stroke-dasharray:7.0,7.0;"/><polygon fill="#181818" points="1069.16,508.0737,1060.6469,503.1213,1064.1895,507.5314,1059.7793,511.0741,1069.16,508.0737" style="stroke:#181818;stroke-width:1.0;"/><text fill="#000000" font-family="sans-serif" font-size="13" lengthAdjust="spacing" textLength="27.46" x="918.5" y="486.042">uses</text></g><!--link MissoesParser to MissoesModelVisitor--><g id="link_MissoesParser_MissoesModelVisitor"><path codeLine="181" d="M832.5,177.3737 C887.09,202.1737 945.2271,228.5724 1004.2971,255.4024 " fill="none" id="MissoesParser-to-MissoesModelVisitor" style="stroke:#181818;stroke-width:1.0;stroke-dasharray:7.0,7.0;"/><polygon fill="#181818" points="1009.76,257.8837,1003.2198,250.5198,1005.2076,255.8159,999.9115,257.8037,1009.76,257.8837" style="stroke:#181818;stroke-width:1.0;"/><text fill="#000000" font-family="sans-serif" font-size="13" lengthAdjust="spacing" textLength="27.46" x="918.5" y="206.042">uses</text></g><!--link FrotaService to DronesParser--><g id="link_FrotaService_DronesParser"><path codeLine="184" d="M372.11,993.4637 C401.91,976.6737 429.67,954.6537 448,926.0137 C457.77,910.7437 454.76,781.1037 456,763.0137 C462.42,669.0937 435.17,415.2937 493,341.0137 C519.16,307.4037 556.9151,291.4153 596.5551,282.5353 " fill="none" id="FrotaService-to-DronesParser" style="stroke:#181818;stroke-width:1.0;stroke-dasharray:7.0,7.0;"/><polygon fill="#181818" points="602.41,281.2237,592.7533,279.2878,597.5309,282.3167,594.5021,287.0943,602.41,281.2237" style="stroke:#181818;stroke-width:1.0;"/><text fill="#000000" font-family="sans-serif" font-size="13" lengthAdjust="spacing" textLength="27.46" x="457" y="353.042">uses</text></g><!--link FrotaService to ModelosParser--><g id="link_FrotaService_ModelosParser"><path codeLine="185" d="M372.19,987.5537 C400.53,971.3337 427.66,951.0337 448,926.0137 C494.33,869.0237 462.41,833.7837 493,767.0137 C523.86,699.6437 565.2206,635.1118 604.4206,580.0418 " fill="none" id="FrotaService-to-ModelosParser" style="stroke:#181818;stroke-width:1.0;stroke-dasharray:7.0,7.0;"/><polygon fill="#181818" points="607.9,575.1537,599.4221,580.1662,605.0005,579.2271,605.9396,584.8054,607.9,575.1537" style="stroke:#181818;stroke-width:1.0;"/><text fill="#000000" font-family="sans-serif" font-size="13" lengthAdjust="spacing" textLength="27.46" x="457" y="786.042">uses</text></g><!--link MissoesService to MissoesParser--><g id="link_MissoesService_MissoesParser"><path codeLine="186" d="M247.45,692.8337 C281.05,561.2837 354.69,339.7937 493,202.0137 C509.72,185.3537 524.8402,174.3865 546.1502,163.0765 " fill="none" id="MissoesService-to-MissoesParser" style="stroke:#181818;stroke-width:1.0;stroke-dasharray:7.0,7.0;"/><polygon fill="#181818" points="551.45,160.2637,541.6251,160.9497,547.0335,162.6077,545.3755,168.0161,551.45,160.2637" style="stroke:#181818;stroke-width:1.0;"/><text fill="#000000" font-family="sans-serif" font-size="13" lengthAdjust="spacing" textLength="27.46" x="457" y="211.042">uses</text></g><!--SRC=[bLXRRzis57xNhs1JO7EGkHYmObYD8O1hoK0mNuB43T2du5XYR68IQL1qa3N9Vz-HI4gaACLf2gGbptTkF5VrGqOV6ASaNY-dLwlxsNgnlY4Vax_cd-TnzC4GazNcQlFT4h_-4N-PpnlYtNJnBR6q-JpvSpPhQBV9pTtLhA76dvCudaPHJXyKKO98jjihaZ59KyK4Zw83fF_2ZfApM1J0-9blrdCK4Vn9SoXBCfT2WMyPGGGnFnUP59oM4x9WfVexhWwNvBbKe5Zwsg8AaT5SMDYoFdLm-hUZkHRMqTmg7dDHq0cvLPBndNDxBAWKjrGo9ER29MaRGfO3BSLNA16VYUCsforb2me5mLGT8G-f5AtFUkJjXOJoJeYGuvWhLi0I-55HdW8Y5YA5F4OrZZbIFBs92XvAFwV_KYSVAWLC0fP1Hl_PXPR2KGdaOx1aFAG-eZhDEvF77vH9yHRczhZ5lzz2nBHCUo4bvQMGJNff7ouT9wXKx86ba8fXKCuAfYho4Ww6-Xk9QqqE2hKWQK3EgriHIrQM21jwxuj2qsskumbEvhf6_MG86MSfwqd0kYJ3QvklIVstrkXGkP9q1zRiH1ylk-PIB31FWjUNMfElarMCtYJDHRAydwxYwH8lrytbRBsQBRvTOQzgRgQhMRAOEZSN3r8KsfUHTc53dvHrxxp77ozQnf71fnNO76bXQepzWDHzb0mLCYw6gFXGm5FMaxY0bQwEMKzFgRgDTnlaWgFh9nCY1wjr9eJCA8SC72fsmtvoO49B7xJW4N8XEuwyEfC5M_0ZIsbvrXbEpusgxf0n76uffI2hu4dTuSfH2WNZU-44_r6mBCJNe-Cqd3uTX5JlXkTLl2ruW6ej3SYGLSNA3Vyec-Zv5k1sL6aPrqAkCCeZDzI8raJ7XwgzDM8hSEoMFt9iXSWfyE76Wysgv-rp0PcXhlcr53i9M8OWLO_hBHGZMSnPJaSF-EiQrFx4unksZNWNqxYegtmZJ3_Gnubfd-T1HLn8MeX7giaZ3jvBXk4pnenwyYfFZrXTHbAi2ry_zzBOqCZjL7oN6TiLZdT5imqhtYa1Qmt7eshywEDf33OXTcln6cH9PKb-8NUiP4f8hCgFyz-hFoRYiCNf1wdoDefIytcphIQCcZoS2Qwm6plEDXCPQjZCEGTWEzuhuAtvzm2eXGG0Cz_lnO6Y2rMDiLhYekT-WBc51u1sBwX0Dyrf2AZTlh6705Qq3SAyiWjnwhCJ4jrsmeZKmxwILWC2TNfYZfen6G2offrf3U-pnbHAJuBe53stDHaQfETnRP7-PnYJTW3MWMcFORerWwfEjkOqy0xthNc9Up7Wj5SCfdIkYaCULaJdoyOftOgh6L_ggHjrjEJEQpKEWullWG_ryfh1MEjQgYMR5gT5wqChszrOUnX1j7pWcDJP9JM3YQvHPKyTNTwQ6V1wh2sdkUZmE6cY-SAyEUzVv8nEBqEqvfuSEHzOeBMGDWErX20Zgphhh4o_4lqLZasZMk04B_ViK4Rwm_lbPJmMp-PRU49Ib8BG3jLy03faZNyLu_7BIqi-EvQua4MH_OAnx7gHTzZDZQ7R5Je460NUzy24xA4BiEQVOPgo7QSPKGBji88hFOXo5zy9qOlvsnYpdqUHUssGpWux8NOpFWsqIt8L5xiLzGJ6aZvzkZJ_HJ8X1N0Sjpq0wtuzYN0a4S53K1Cb5zLPpsgS2LwhRm04xn1cBRCRHadW4LWEMvOpzL_r1gR5I-y9UbgYvq8gQIKiwkj8ddcdW4xgdK3wYM7HaR_9j4Pwjaz8LHYHFzISj_QK6R2J7ahqlr9_7bZvHiv07dHGmtdWu_u7]--></g></svg>